<svg id="Layer_1" data-name="Layer 1" xmlns="http://www.w3.org/2000/svg" viewBox="0 0 114.2 58.13"><defs><style>.cls-1{fill:#fff;}</style></defs><title>Artboard 1</title><rect class="cls-1" x="106.9" y="49.6" width="7.3" height="7.3"/><polygon class="cls-1" points="92.1 17.1 96.5 49.7 100.8 17.1 107.6 17.1 101.3 56.9 91.6 56.9 85.4 17.1 92.1 17.1"/><path class="cls-1" d="M3.8,17.1H0v5.3H3.8V56.9h6.6V22.4H15V17.1H10.4V9a3.65,3.65,0,0,1,.8-2.7,3.42,3.42,0,0,1,2.6-.9H15V0H12.6C9.7,0,6.8.6,5.5,1.9S3.8,5.1,3.8,8Z"/><rect class="cls-1" x="17" y="17.1" width="6.6" height="39.8"/><path class="cls-1" d="M54.2,25.7c0-2.2.6-4.6,3.7-4.6s3.7,2.3,3.7,4.6v8.2H54.2Zm0,13.5H68V27c0-7.3-3.5-10.3-10.2-10.3-6.9,0-10.2,3-10.2,10.4V47.2c0,6.7,4.1,10.2,10.2,10.2S68,54.5,68,47.2V44H61.6v3.8c0,2.7-1,4.6-3.7,4.6s-3.7-1.9-3.7-4.6Z"/><path class="cls-1" d="M38.5,34.3c-5-4.4-5.4-5-5.4-8.2,0-2.8.2-4.4,2.7-4.4s2.8,1.7,2.8,4.5v3.7H45v-6c0-4.7-3.6-7.1-9.3-7.1s-9.2,1.9-9.3,9.4V27c0,2.4,0,6.1,5.9,11.1L34,39.5c4.3,3.6,4.8,4.1,4.8,8.4,0,2.7-.2,4.7-3,4.7s-3-2-3-3.3V44.2H26.1v5.3c0,6.5,4.2,8.1,9.7,8.1s9.7-1.6,9.7-9.9V47c-.1-6.1-1.2-7.6-7-12.7"/><path class="cls-1" d="M76.8,21.2V17.1h-6V56.9h6.5V29.1c0-2.1.7-3.6,1.9-4.4a7.58,7.58,0,0,1,4.4-1.1v-7c-3.4.1-4.9.8-6.7,4.4Z"/></svg>