<svg id="Laag_1" data-name="Laag 1" xmlns="http://www.w3.org/2000/svg" viewBox="0 0 441.2 81.28"><defs><style>.cls-1{fill:#253a79;}.cls-2{fill:#ff8702;}.cls-3,.cls-4{fill:#fff;}.cls-3{fill-rule:evenodd;}</style></defs><title>van-oord-logo</title><rect class="cls-1" x="319.48" width="121.72" height="80.12"/><polygon class="cls-2" points="437.6 76.56 437.6 6.08 366.27 76.56 437.6 76.56"/><path class="cls-3" d="M392.39,49.26V76.44C409.66,78.54,430.9,78,447,67.5c5.86-3.81,10.29-8.38,15.76-11.29h0c3.77-2,8.81-2.21,11.79.42s.82,3,.82,3l-1.7-.07-2-.15h-.07a7.59,7.59,0,0,0-4.94,1.49A9,9,0,0,0,467.18,76,9.44,9.44,0,0,0,478,75.3l26.35-26Z" transform="translate(-69.31 -45.69)"/><polygon class="cls-1" points="0 33.7 11.97 33.7 23.06 67.54 23.18 67.54 34.05 33.7 41.52 33.7 26.57 80.12 15.3 80.12 0 33.7"/><path class="cls-1" d="M141.48,125.81a21.78,21.78,0,0,1-5.72.77c-3.09,0-6.25-.51-7.77-3.85h-.7a9.69,9.69,0,0,1-7.88,3.85,9.93,9.93,0,0,1-10.16-10.34c0-10.08,9.17-12.26,13-12.26H128V101.8c0-3.21-1.86-4.63-5.61-4.63a19.25,19.25,0,0,0-10.33,3V92.42A32.09,32.09,0,0,1,124,90.24c12,0,14.59,4.88,14.59,11.63v13.54c0,1.48-.06,3.47,1.81,3.47h1.11ZM128,110.92h-2.28c-1.92,0-5.89.19-5.89,4.36a3.31,3.31,0,0,0,3.33,3.6,6.16,6.16,0,0,0,4.84-2.76Z" transform="translate(-69.31 -45.69)"/><path class="cls-1" d="M159.22,97.56h.7c1.93-4.37,5.84-7.32,10.34-7.32,6.42,0,9.4,4.75,9.4,10.85v24.72H168.39V104.94c0-2.31.12-5.45-2.74-5.45-2.58,0-4.5,2.89-5.73,5.07v21.25H148.65V91h11.27Z" transform="translate(-69.31 -45.69)"/><path class="cls-1" d="M229.39,78.23c13.72,0,22.83,9,22.83,24.4S243.11,127,229.39,127s-22.89-8.92-22.89-24.34,9.17-24.4,22.89-24.4m0,41c8,0,10.86-9.18,10.86-16.63s-2.91-16.69-10.86-16.69-10.92,9.24-10.92,16.69,2.92,16.63,10.92,16.63" transform="translate(-69.31 -45.69)"/><path class="cls-1" d="M256.42,108.41c0-6.36,2.58-18.17,17.58-18.17s17.64,11.81,17.64,18.17S289,126.58,274,126.58s-17.58-11.81-17.58-18.17M274,119.65c4.56,0,5.67-7.51,5.67-11.24S278.56,97.18,274,97.18s-5.61,7.51-5.61,11.23,1.11,11.24,5.61,11.24" transform="translate(-69.31 -45.69)"/><path class="cls-1" d="M309.21,97.56h.7c1.92-4.37,5.83-7.32,10.33-7.32h1.28v10.92a9.69,9.69,0,0,0-4.26-.9,8,8,0,0,0-7.35,4.3v21.25H298.63V91h11.28Z" transform="translate(-69.31 -45.69)"/><path class="cls-1" d="M348.09,119.26h-.7c-1.75,4.56-5.54,7.32-10,7.32-9.17,0-12.32-8.6-12.32-17.33,0-9.38,3.68-19,13.49-19,4,0,5.84,1.28,8.87,3.85h.7l-.7-3.08V76.3h11.27v49.51H347.39Zm-.7-18.36c-1.11-1.93-2.74-3.34-4.85-3.34-4.37,0-5.54,7.07-5.54,10.72,0,3.47.88,9.06,5,9.06,2.63,0,4.32-2.57,5.37-4.88Z" transform="translate(-69.31 -45.69)"/><rect class="cls-4" x="482.68" y="89.31" width="3.68" height="3.68" transform="translate(8.15 323.62) rotate(-45)"/><path class="cls-4" d="M489.41,100l-.92,3.45,5.07,1.38-.09.18a53.16,53.16,0,0,0-3.3,7.19h-3.86V99.7h-3.57v12.54h-3.86a53.16,53.16,0,0,0-3.3-7.19l-.09-.18,5.06-1.38-.92-3.45-9.09,2.42s5.3,8.74,5.64,13.35h16.69c.34-4.61,5.64-13.35,5.64-13.35Z" transform="translate(-69.31 -45.69)"/><rect class="cls-4" x="406.87" y="49.36" width="16.69" height="2.57"/></svg>