<svg id="Layer_1" data-name="Layer 1" xmlns="http://www.w3.org/2000/svg" viewBox="0 0 699.94 264.64"><defs><style>.cls-1,.cls-11,.cls-3,.cls-4,.cls-9{fill:none;}.cls-1,.cls-11{stroke:#939598;}.cls-1,.cls-11,.cls-3,.cls-4,.cls-7,.cls-9{stroke-miterlimit:10;}.cls-1,.cls-3,.cls-4{stroke-width:0.5px;}.cls-1{stroke-dasharray:2;}.cls-2{fill:#f1f2f2;}.cls-3,.cls-9{stroke:#7fcbc3;}.cls-3,.cls-4{opacity:0.5;}.cls-4,.cls-7{stroke:#808285;}.cls-5{fill:#383838;}.cls-6{fill:#808285;}.cls-7{fill:#2bb673;}.cls-7,.cls-9{stroke-width:2px;}.cls-8{fill:#fff;}.cls-10{fill:#7fcbc3;}</style></defs><title>Population_PresenceCriteria</title><line class="cls-1" x1="141.73" y1="157.19" x2="668.12" y2="157.19"/><rect class="cls-2" x="142.01" y="21.4" width="526.95" height="24.14"/><line class="cls-3" x1="164.91" y1="128.61" x2="164.91" y2="70.86"/><line class="cls-4" x1="164.91" y1="157.22" x2="164.91" y2="128.61"/><line class="cls-4" x1="324.64" y1="157.22" x2="324.64" y2="128.61"/><line class="cls-3" x1="324.64" y1="128.61" x2="324.64" y2="70.86"/><path class="cls-5" d="M25.56,154a.4.4,0,0,1,.11.11L29,158.39q0-.1,0-.2c0-.07,0-.13,0-.19v-4.06h.68v5.73h-.39a.33.33,0,0,1-.15,0,.39.39,0,0,1-.12-.11l-3.32-4.32c0,.07,0,.13,0,.2s0,.12,0,.18v4.08H25v-5.73h.4A.35.35,0,0,1,25.56,154Z"/><path class="cls-5" d="M32.58,155.56a2.08,2.08,0,0,1,.8.15,1.68,1.68,0,0,1,.61.42,1.85,1.85,0,0,1,.38.66,2.85,2.85,0,0,1,0,1.73,1.86,1.86,0,0,1-.38.66,1.67,1.67,0,0,1-.61.42,2.28,2.28,0,0,1-1.6,0,1.69,1.69,0,0,1-.61-.42,1.88,1.88,0,0,1-.39-.66,2.81,2.81,0,0,1,0-1.73,1.87,1.87,0,0,1,.39-.66,1.7,1.7,0,0,1,.61-.42A2.08,2.08,0,0,1,32.58,155.56Zm0,3.62a1,1,0,0,0,.9-.4,2.29,2.29,0,0,0,0-2.25,1,1,0,0,0-.9-.4,1.25,1.25,0,0,0-.53.1,1,1,0,0,0-.37.3,1.33,1.33,0,0,0-.22.48,2.84,2.84,0,0,0,0,1.29,1.32,1.32,0,0,0,.22.48,1,1,0,0,0,.37.3A1.25,1.25,0,0,0,32.58,159.17Z"/><path class="cls-5" d="M35.39,159.67v-4.05h.42a.18.18,0,0,1,.19.15l.06.44a2.28,2.28,0,0,1,.59-.47,1.53,1.53,0,0,1,.75-.18,1.47,1.47,0,0,1,.59.11,1.13,1.13,0,0,1,.42.31,1.39,1.39,0,0,1,.26.49,2.12,2.12,0,0,1,.09.63v2.58h-.71v-2.58a1.09,1.09,0,0,0-.21-.71.78.78,0,0,0-.64-.25,1.2,1.2,0,0,0-.59.15,2,2,0,0,0-.51.41v3Z"/><path class="cls-5" d="M39.66,157h2v.6h-2Z"/><path class="cls-5" d="M43.58,157.28v2.39h-.77v-5.73h1.62a3.54,3.54,0,0,1,.94.11,1.8,1.8,0,0,1,.65.32,1.27,1.27,0,0,1,.38.5,1.68,1.68,0,0,1,.12.66,1.65,1.65,0,0,1-.1.57,1.5,1.5,0,0,1-.28.47,1.67,1.67,0,0,1-.44.36,2.21,2.21,0,0,1-.59.22.82.82,0,0,1,.26.24L47,159.67h-.69a.34.34,0,0,1-.31-.16l-1.49-2a.44.44,0,0,0-.15-.14.54.54,0,0,0-.24,0Zm0-.56h.81a2,2,0,0,0,.6-.08,1.22,1.22,0,0,0,.43-.23,1,1,0,0,0,.26-.36,1.17,1.17,0,0,0,.09-.46.91.91,0,0,0-.34-.77,1.63,1.63,0,0,0-1-.26h-.85Z"/><path class="cls-5" d="M49.37,155.56a1.81,1.81,0,0,1,.67.12,1.51,1.51,0,0,1,.53.35,1.61,1.61,0,0,1,.35.57,2.2,2.2,0,0,1,.13.77.46.46,0,0,1,0,.22.15.15,0,0,1-.14.06h-2.7a2.24,2.24,0,0,0,.1.67,1.36,1.36,0,0,0,.26.47,1.05,1.05,0,0,0,.4.28,1.37,1.37,0,0,0,.52.09,1.52,1.52,0,0,0,.46-.06,2.17,2.17,0,0,0,.33-.13l.23-.13a.31.31,0,0,1,.16-.06.16.16,0,0,1,.14.07l.2.26a1.36,1.36,0,0,1-.32.28,1.94,1.94,0,0,1-.39.19,2.5,2.5,0,0,1-.43.11,2.65,2.65,0,0,1-.44,0,2.06,2.06,0,0,1-.77-.14,1.7,1.7,0,0,1-.61-.42,1.91,1.91,0,0,1-.4-.68,2.76,2.76,0,0,1-.14-.93,2.37,2.37,0,0,1,.13-.79,1.87,1.87,0,0,1,.37-.64,1.72,1.72,0,0,1,.6-.42A2,2,0,0,1,49.37,155.56Zm0,.52a1.09,1.09,0,0,0-.81.3,1.4,1.4,0,0,0-.37.83h2.2a1.45,1.45,0,0,0-.07-.45,1,1,0,0,0-.2-.36.89.89,0,0,0-.32-.23A1.09,1.09,0,0,0,49.39,156.08Z"/><path class="cls-5" d="M54.28,156.29a.16.16,0,0,1-.15.09.28.28,0,0,1-.14,0l-.19-.1-.26-.1a1.24,1.24,0,0,0-.36,0,1.06,1.06,0,0,0-.32,0,.78.78,0,0,0-.25.13.56.56,0,0,0-.16.19.5.5,0,0,0-.05.23.38.38,0,0,0,.09.26.78.78,0,0,0,.24.18,2.07,2.07,0,0,0,.34.13l.39.12.39.15a1.4,1.4,0,0,1,.34.2.92.92,0,0,1,.24.29.9.9,0,0,1,.09.42,1.33,1.33,0,0,1-.1.52,1.13,1.13,0,0,1-.3.41,1.42,1.42,0,0,1-.48.27,2,2,0,0,1-.66.1,2,2,0,0,1-.77-.14,1.94,1.94,0,0,1-.58-.35l.17-.27a.24.24,0,0,1,.08-.08.21.21,0,0,1,.12,0,.27.27,0,0,1,.15.06l.19.12a1.5,1.5,0,0,0,.28.12,1.26,1.26,0,0,0,.41.06,1.11,1.11,0,0,0,.36-.05.76.76,0,0,0,.26-.15.58.58,0,0,0,.15-.21.66.66,0,0,0,0-.26.42.42,0,0,0-.09-.28.76.76,0,0,0-.24-.19,2,2,0,0,0-.34-.14l-.39-.12-.39-.15a1.37,1.37,0,0,1-.34-.21.93.93,0,0,1-.24-.31,1,1,0,0,1-.09-.44,1.08,1.08,0,0,1,.1-.45,1.1,1.1,0,0,1,.28-.38,1.38,1.38,0,0,1,.45-.26,1.81,1.81,0,0,1,.61-.1,1.94,1.94,0,0,1,.72.13,1.71,1.71,0,0,1,.55.35Z"/><path class="cls-5" d="M56.38,154.35a.46.46,0,0,1,0,.19.56.56,0,0,1-.11.16.52.52,0,0,1-.16.11.49.49,0,0,1-.2,0,.48.48,0,0,1-.19,0,.53.53,0,0,1-.16-.11.52.52,0,0,1-.11-.16.47.47,0,0,1,0-.19.5.5,0,0,1,0-.2.52.52,0,0,1,.11-.16.53.53,0,0,1,.16-.11.47.47,0,0,1,.19,0,.49.49,0,0,1,.2,0,.52.52,0,0,1,.16.11.55.55,0,0,1,.11.16A.48.48,0,0,1,56.38,154.35Zm-.16,1.27v4.05h-.71v-4.05Z"/><path class="cls-5" d="M60.33,159.67a.18.18,0,0,1-.19-.15l-.06-.49a2.14,2.14,0,0,1-.59.51,1.52,1.52,0,0,1-.77.19,1.46,1.46,0,0,1-.63-.13,1.31,1.31,0,0,1-.48-.39,1.87,1.87,0,0,1-.31-.65,3.34,3.34,0,0,1-.11-.89,2.79,2.79,0,0,1,.12-.83,2,2,0,0,1,.35-.67,1.59,1.59,0,0,1,1.29-.61,1.46,1.46,0,0,1,.64.13A1.52,1.52,0,0,1,60,156v-2.25h.71v5.89ZM59,159.15a1.14,1.14,0,0,0,.61-.16,1.75,1.75,0,0,0,.48-.45v-2a1.13,1.13,0,0,0-.43-.37,1.24,1.24,0,0,0-.52-.11,1,1,0,0,0-.87.4,1.89,1.89,0,0,0-.3,1.15,2.93,2.93,0,0,0,.07.68,1.31,1.31,0,0,0,.2.46.78.78,0,0,0,.32.27A1.08,1.08,0,0,0,59,159.15Z"/><path class="cls-5" d="M63.55,155.56a1.81,1.81,0,0,1,.67.12,1.51,1.51,0,0,1,.53.35,1.61,1.61,0,0,1,.35.57,2.2,2.2,0,0,1,.13.77.46.46,0,0,1,0,.22.15.15,0,0,1-.14.06h-2.7a2.24,2.24,0,0,0,.1.67,1.36,1.36,0,0,0,.26.47,1.05,1.05,0,0,0,.4.28,1.37,1.37,0,0,0,.52.09,1.52,1.52,0,0,0,.46-.06,2.17,2.17,0,0,0,.33-.13l.23-.13a.31.31,0,0,1,.16-.06.16.16,0,0,1,.14.07l.2.26a1.36,1.36,0,0,1-.32.28,1.94,1.94,0,0,1-.39.19,2.5,2.5,0,0,1-.43.11,2.65,2.65,0,0,1-.44,0,2.06,2.06,0,0,1-.77-.14,1.7,1.7,0,0,1-.61-.42,1.91,1.91,0,0,1-.4-.68,2.76,2.76,0,0,1-.14-.93,2.37,2.37,0,0,1,.13-.79,1.87,1.87,0,0,1,.37-.64,1.72,1.72,0,0,1,.6-.42A2,2,0,0,1,63.55,155.56Zm0,.52a1.09,1.09,0,0,0-.81.3,1.4,1.4,0,0,0-.37.83h2.2a1.45,1.45,0,0,0-.07-.45,1,1,0,0,0-.2-.36.89.89,0,0,0-.32-.23A1.09,1.09,0,0,0,63.57,156.08Z"/><path class="cls-5" d="M66.14,159.67v-4.05h.42a.18.18,0,0,1,.19.15l.06.44a2.28,2.28,0,0,1,.59-.47,1.53,1.53,0,0,1,.75-.18,1.47,1.47,0,0,1,.59.11,1.13,1.13,0,0,1,.42.31,1.39,1.39,0,0,1,.26.49,2.12,2.12,0,0,1,.09.63v2.58H68.8v-2.58a1.09,1.09,0,0,0-.21-.71.78.78,0,0,0-.64-.25,1.2,1.2,0,0,0-.59.15,2,2,0,0,0-.51.41v3Z"/><path class="cls-5" d="M71.82,159.74a1,1,0,0,1-.74-.27,1.07,1.07,0,0,1-.26-.77v-2.48h-.49a.16.16,0,0,1-.11,0,.15.15,0,0,1,0-.12v-.28l.66-.08.16-1.25a.15.15,0,0,1,.05-.1.16.16,0,0,1,.11,0h.36v1.4h1.16v.52H71.53v2.43a.52.52,0,0,0,.12.38.43.43,0,0,0,.32.12.57.57,0,0,0,.19,0l.14-.07.1-.07.07,0a.12.12,0,0,1,.1.07l.21.34a1.32,1.32,0,0,1-.44.27A1.51,1.51,0,0,1,71.82,159.74Z"/><path class="cls-5" d="M74.59,153.94h.64a.27.27,0,0,1,.17.05.25.25,0,0,1,.09.13l1.18,4c0,.07,0,.15.06.23l0,.26.06-.26a2.09,2.09,0,0,1,.06-.23l1.35-4a.29.29,0,0,1,.09-.13.26.26,0,0,1,.17-.06h.22a.27.27,0,0,1,.17.05.29.29,0,0,1,.09.13l1.34,4a3.89,3.89,0,0,1,.13.48l0-.25a1.76,1.76,0,0,1,.05-.22l1.19-4a.25.25,0,0,1,.09-.13.26.26,0,0,1,.17-.06h.6l-1.79,5.73h-.7l-1.45-4.37a2.41,2.41,0,0,1-.08-.29l0,.15,0,.13-1.46,4.37h-.7Z"/><path class="cls-5" d="M84.78,155.56a2.08,2.08,0,0,1,.8.15,1.68,1.68,0,0,1,.61.42,1.85,1.85,0,0,1,.38.66,2.85,2.85,0,0,1,0,1.73,1.86,1.86,0,0,1-.38.66,1.67,1.67,0,0,1-.61.42,2.28,2.28,0,0,1-1.6,0,1.69,1.69,0,0,1-.61-.42,1.88,1.88,0,0,1-.39-.66,2.81,2.81,0,0,1,0-1.73,1.87,1.87,0,0,1,.39-.66,1.7,1.7,0,0,1,.61-.42A2.08,2.08,0,0,1,84.78,155.56Zm0,3.62a1,1,0,0,0,.9-.4,2.29,2.29,0,0,0,0-2.25,1,1,0,0,0-.9-.4,1.25,1.25,0,0,0-.53.1,1,1,0,0,0-.37.3,1.33,1.33,0,0,0-.22.48,2.84,2.84,0,0,0,0,1.29,1.32,1.32,0,0,0,.22.48,1,1,0,0,0,.37.3A1.25,1.25,0,0,0,84.78,159.17Z"/><path class="cls-5" d="M87.59,159.67v-4.05H88a.22.22,0,0,1,.16,0,.27.27,0,0,1,.06.15l0,.63a1.85,1.85,0,0,1,.51-.66,1.14,1.14,0,0,1,.72-.24,1.13,1.13,0,0,1,.3,0,1.05,1.05,0,0,1,.25.11l-.09.53a.12.12,0,0,1-.12.1l-.17,0a1.1,1.1,0,0,0-.32,0,.92.92,0,0,0-.62.22,1.63,1.63,0,0,0-.42.63v2.58Z"/><path class="cls-5" d="M91.55,153.78v3.47h.18l.13,0a.37.37,0,0,0,.12-.09l1.28-1.37.12-.1a.29.29,0,0,1,.16,0h.65l-1.49,1.59-.11.12-.12.09.13.11.11.14,1.58,2h-.64a.31.31,0,0,1-.15,0,.39.39,0,0,1-.12-.11l-1.33-1.66a.31.31,0,0,0-.12-.11.48.48,0,0,0-.18,0h-.2v1.94h-.72v-5.89Z"/><path class="cls-5" d="M96.37,155.56a1.81,1.81,0,0,1,.67.12,1.51,1.51,0,0,1,.53.35,1.61,1.61,0,0,1,.35.57,2.2,2.2,0,0,1,.13.77.46.46,0,0,1,0,.22.15.15,0,0,1-.14.06h-2.7a2.24,2.24,0,0,0,.1.67,1.36,1.36,0,0,0,.26.47,1.05,1.05,0,0,0,.4.28,1.37,1.37,0,0,0,.52.09,1.52,1.52,0,0,0,.46-.06,2.17,2.17,0,0,0,.33-.13l.23-.13a.31.31,0,0,1,.16-.06.16.16,0,0,1,.14.07l.2.26a1.36,1.36,0,0,1-.32.28,1.94,1.94,0,0,1-.39.19,2.5,2.5,0,0,1-.43.11,2.65,2.65,0,0,1-.44,0,2.06,2.06,0,0,1-.77-.14,1.7,1.7,0,0,1-.61-.42,1.91,1.91,0,0,1-.4-.68,2.76,2.76,0,0,1-.14-.93,2.37,2.37,0,0,1,.13-.79,1.87,1.87,0,0,1,.37-.64,1.72,1.72,0,0,1,.6-.42A2,2,0,0,1,96.37,155.56Zm0,.52a1.09,1.09,0,0,0-.81.3,1.4,1.4,0,0,0-.37.83h2.2a1.45,1.45,0,0,0-.07-.45,1,1,0,0,0-.2-.36.89.89,0,0,0-.32-.23A1.09,1.09,0,0,0,96.39,156.08Z"/><path class="cls-5" d="M99,159.67v-4.05h.41a.22.22,0,0,1,.16,0,.27.27,0,0,1,.06.15l0,.63a1.85,1.85,0,0,1,.51-.66,1.14,1.14,0,0,1,.72-.24,1.13,1.13,0,0,1,.3,0,1.05,1.05,0,0,1,.25.11l-.09.53a.12.12,0,0,1-.12.1l-.17,0a1.1,1.1,0,0,0-.32,0,.92.92,0,0,0-.62.22,1.63,1.63,0,0,0-.42.63v2.58Z"/><path class="cls-5" d="M104.5,156.29a.16.16,0,0,1-.15.09.28.28,0,0,1-.14,0l-.19-.1-.26-.1a1.24,1.24,0,0,0-.36,0,1.06,1.06,0,0,0-.32,0,.78.78,0,0,0-.25.13.56.56,0,0,0-.16.19.5.5,0,0,0-.05.23.38.38,0,0,0,.09.26.78.78,0,0,0,.24.18,2.07,2.07,0,0,0,.34.13l.39.12.39.15a1.4,1.4,0,0,1,.34.2.92.92,0,0,1,.24.29.9.9,0,0,1,.09.42,1.33,1.33,0,0,1-.1.52,1.13,1.13,0,0,1-.3.41,1.42,1.42,0,0,1-.48.27,2,2,0,0,1-.66.1,2,2,0,0,1-.77-.14,1.94,1.94,0,0,1-.58-.35L102,159a.24.24,0,0,1,.08-.08.21.21,0,0,1,.12,0,.27.27,0,0,1,.15.06l.19.12a1.5,1.5,0,0,0,.28.12,1.26,1.26,0,0,0,.41.06,1.11,1.11,0,0,0,.36-.05.76.76,0,0,0,.26-.15.58.58,0,0,0,.15-.21.66.66,0,0,0,0-.26.42.42,0,0,0-.09-.28.76.76,0,0,0-.24-.19,2,2,0,0,0-.34-.14l-.39-.12-.39-.15a1.37,1.37,0,0,1-.34-.21.93.93,0,0,1-.24-.31,1,1,0,0,1-.09-.44,1.08,1.08,0,0,1,.1-.45,1.1,1.1,0,0,1,.28-.38,1.38,1.38,0,0,1,.45-.26,1.81,1.81,0,0,1,.61-.1,1.94,1.94,0,0,1,.72.13,1.71,1.71,0,0,1,.55.35Z"/><path class="cls-5" d="M25.78,187.46h2.48v.65H25v-5.73h.78Z"/><path class="cls-5" d="M29.62,184.06v2.58a1.07,1.07,0,0,0,.21.71.79.79,0,0,0,.64.25,1.23,1.23,0,0,0,.59-.15,1.83,1.83,0,0,0,.51-.41v-3h.71v4.05h-.42a.18.18,0,0,1-.19-.15l-.06-.44A2.23,2.23,0,0,1,31,188a1.56,1.56,0,0,1-.75.18,1.47,1.47,0,0,1-.59-.11,1.16,1.16,0,0,1-.43-.31,1.31,1.31,0,0,1-.26-.48,2.15,2.15,0,0,1-.09-.63v-2.58Z"/><path class="cls-5" d="M33.45,188.11v-4.05h.42a.18.18,0,0,1,.19.15l.06.44a2.28,2.28,0,0,1,.59-.47,1.53,1.53,0,0,1,.75-.18,1.47,1.47,0,0,1,.59.11,1.13,1.13,0,0,1,.42.31,1.39,1.39,0,0,1,.26.49,2.12,2.12,0,0,1,.09.63v2.58h-.71v-2.58a1.09,1.09,0,0,0-.21-.71.78.78,0,0,0-.64-.25,1.2,1.2,0,0,0-.59.15,2,2,0,0,0-.51.41v3Z"/><path class="cls-5" d="M40.67,184.78l-.06.07a.15.15,0,0,1-.09,0,.23.23,0,0,1-.13,0l-.18-.11-.26-.11a1.39,1.39,0,0,0-.9.06,1,1,0,0,0-.38.31,1.39,1.39,0,0,0-.23.48,2.41,2.41,0,0,0-.08.64,2.33,2.33,0,0,0,.08.65,1.41,1.41,0,0,0,.24.48,1,1,0,0,0,.37.3,1.14,1.14,0,0,0,.49.1,1.25,1.25,0,0,0,.43-.06,1.31,1.31,0,0,0,.28-.14l.18-.14a.22.22,0,0,1,.14-.06.15.15,0,0,1,.14.07l.2.26a1.54,1.54,0,0,1-.66.47,2.34,2.34,0,0,1-.84.15,1.77,1.77,0,0,1-.71-.14,1.61,1.61,0,0,1-.57-.41,1.92,1.92,0,0,1-.38-.65,2.62,2.62,0,0,1-.14-.88,2.67,2.67,0,0,1,.13-.84,1.88,1.88,0,0,1,.37-.66,1.66,1.66,0,0,1,.6-.43,2,2,0,0,1,.82-.16,1.93,1.93,0,0,1,.75.14,1.8,1.8,0,0,1,.58.39Z"/><path class="cls-5" d="M41.64,188.11v-5.89h.71v2.38a2.19,2.19,0,0,1,.58-.44,1.55,1.55,0,0,1,.73-.17,1.47,1.47,0,0,1,.59.11,1.13,1.13,0,0,1,.42.31,1.39,1.39,0,0,1,.26.49,2.12,2.12,0,0,1,.09.63v2.58H44.3v-2.58a1.09,1.09,0,0,0-.21-.71.78.78,0,0,0-.64-.25,1.2,1.2,0,0,0-.59.15,2,2,0,0,0-.51.41v3Z"/><path class="cls-5" d="M51.78,186.93a.16.16,0,0,1,.12.05l.3.33a2.44,2.44,0,0,1-.85.64,2.91,2.91,0,0,1-1.21.23A2.85,2.85,0,0,1,49,188a2.46,2.46,0,0,1-.86-.6,2.71,2.71,0,0,1-.55-.93,3.46,3.46,0,0,1-.2-1.19,3.26,3.26,0,0,1,.21-1.19,2.71,2.71,0,0,1,.59-.93,2.64,2.64,0,0,1,.91-.6,3.1,3.1,0,0,1,1.17-.21,2.61,2.61,0,0,1,1.9.73l-.25.36-.06.07a.17.17,0,0,1-.1,0,.2.2,0,0,1-.11,0l-.14-.09-.19-.12-.26-.12a2.16,2.16,0,0,0-.34-.09,2.39,2.39,0,0,0-.45,0,2.18,2.18,0,0,0-.84.16,1.88,1.88,0,0,0-.66.45,2,2,0,0,0-.43.71,2.71,2.71,0,0,0-.15.94,2.75,2.75,0,0,0,.15,1,2.1,2.1,0,0,0,.42.71,1.77,1.77,0,0,0,.63.44,2,2,0,0,0,.78.15,3.19,3.19,0,0,0,.46,0,1.91,1.91,0,0,0,.38-.09,1.57,1.57,0,0,0,.32-.16,2.49,2.49,0,0,0,.3-.23A.2.2,0,0,1,51.78,186.93Z"/><path class="cls-5" d="M53.11,188.11v-4.05h.41a.22.22,0,0,1,.16,0,.27.27,0,0,1,.06.15l0,.63a1.85,1.85,0,0,1,.51-.66A1.14,1.14,0,0,1,55,184a1.13,1.13,0,0,1,.3,0,1.05,1.05,0,0,1,.25.11l-.09.53a.12.12,0,0,1-.12.1l-.17,0a1.1,1.1,0,0,0-.32,0,.92.92,0,0,0-.62.22,1.63,1.63,0,0,0-.42.63v2.58Z"/><path class="cls-5" d="M58,184a2.08,2.08,0,0,1,.8.15,1.68,1.68,0,0,1,.61.42,1.85,1.85,0,0,1,.38.66,2.85,2.85,0,0,1,0,1.73,1.86,1.86,0,0,1-.38.66,1.67,1.67,0,0,1-.61.42,2.28,2.28,0,0,1-1.6,0,1.69,1.69,0,0,1-.61-.42,1.88,1.88,0,0,1-.39-.66,2.81,2.81,0,0,1,0-1.73,1.87,1.87,0,0,1,.39-.66,1.7,1.7,0,0,1,.61-.42A2.08,2.08,0,0,1,58,184Zm0,3.62a1,1,0,0,0,.9-.4,2.29,2.29,0,0,0,0-2.25,1,1,0,0,0-.9-.4,1.25,1.25,0,0,0-.53.1,1,1,0,0,0-.37.3,1.33,1.33,0,0,0-.22.48,2.84,2.84,0,0,0,0,1.29,1.32,1.32,0,0,0,.22.48,1,1,0,0,0,.37.3A1.25,1.25,0,0,0,58,187.61Z"/><path class="cls-5" d="M60.25,184.06h.56a.22.22,0,0,1,.14,0,.22.22,0,0,1,.08.1l.78,2.61.06.28q0,.13,0,.27,0-.14.07-.27l.08-.28.86-2.62a.21.21,0,0,1,.07-.1.2.2,0,0,1,.13,0h.31a.21.21,0,0,1,.13,0,.21.21,0,0,1,.07.1l.84,2.62c0,.09.06.19.08.28l.07.27c0-.09,0-.18.05-.28s0-.19.07-.27l.79-2.61a.2.2,0,0,1,.08-.11.21.21,0,0,1,.13,0h.54L65,188.11H64.4c-.07,0-.12,0-.14-.14l-.9-2.75a1.51,1.51,0,0,1-.05-.19l0-.19,0,.19a1.55,1.55,0,0,1-.05.19L62.27,188a.17.17,0,0,1-.16.14h-.54Z"/><path class="cls-5" d="M69.76,188.11a.18.18,0,0,1-.19-.15l-.06-.49a2.14,2.14,0,0,1-.59.51,1.52,1.52,0,0,1-.77.19,1.46,1.46,0,0,1-.63-.13,1.31,1.31,0,0,1-.48-.39,1.87,1.87,0,0,1-.31-.65,3.34,3.34,0,0,1-.11-.89,2.79,2.79,0,0,1,.12-.83,2,2,0,0,1,.35-.67,1.59,1.59,0,0,1,1.29-.61,1.46,1.46,0,0,1,.64.13,1.52,1.52,0,0,1,.47.35v-2.25h.71v5.89Zm-1.38-.52a1.14,1.14,0,0,0,.61-.16,1.75,1.75,0,0,0,.48-.45v-2a1.13,1.13,0,0,0-.43-.37,1.24,1.24,0,0,0-.52-.11,1,1,0,0,0-.87.4,1.89,1.89,0,0,0-.3,1.15,2.93,2.93,0,0,0,.07.68,1.31,1.31,0,0,0,.2.46.78.78,0,0,0,.32.27A1.08,1.08,0,0,0,68.38,187.59Z"/><path class="cls-5" d="M25.86,99.61V102h-.77V96.27h1.62a3.54,3.54,0,0,1,.94.11,1.8,1.8,0,0,1,.65.32,1.27,1.27,0,0,1,.38.5,1.68,1.68,0,0,1,.12.66,1.65,1.65,0,0,1-.1.57,1.5,1.5,0,0,1-.28.47,1.67,1.67,0,0,1-.44.36,2.21,2.21,0,0,1-.59.22.82.82,0,0,1,.26.24L29.32,102h-.69a.34.34,0,0,1-.31-.16l-1.49-2a.44.44,0,0,0-.15-.14.54.54,0,0,0-.24,0Zm0-.56h.81a2,2,0,0,0,.6-.08,1.22,1.22,0,0,0,.43-.23,1,1,0,0,0,.26-.36,1.17,1.17,0,0,0,.09-.46.91.91,0,0,0-.34-.77,1.63,1.63,0,0,0-1-.26h-.85Z"/><path class="cls-5" d="M31.65,97.89a1.81,1.81,0,0,1,.67.12,1.51,1.51,0,0,1,.53.35,1.61,1.61,0,0,1,.35.57,2.2,2.2,0,0,1,.13.77.46.46,0,0,1,0,.22.15.15,0,0,1-.14.06h-2.7a2.24,2.24,0,0,0,.1.67,1.36,1.36,0,0,0,.26.47,1.05,1.05,0,0,0,.4.28,1.37,1.37,0,0,0,.52.09,1.52,1.52,0,0,0,.46-.06,2.17,2.17,0,0,0,.33-.13l.23-.13a.31.31,0,0,1,.16-.06.16.16,0,0,1,.14.07l.2.26a1.36,1.36,0,0,1-.32.28,1.94,1.94,0,0,1-.39.19,2.5,2.5,0,0,1-.43.11,2.65,2.65,0,0,1-.44,0,2.06,2.06,0,0,1-.77-.14,1.7,1.7,0,0,1-.61-.42,1.91,1.91,0,0,1-.4-.68,2.76,2.76,0,0,1-.14-.93,2.37,2.37,0,0,1,.13-.79,1.87,1.87,0,0,1,.37-.64,1.72,1.72,0,0,1,.6-.42A2,2,0,0,1,31.65,97.89Zm0,.52a1.09,1.09,0,0,0-.81.3,1.4,1.4,0,0,0-.37.83h2.2a1.45,1.45,0,0,0-.07-.45,1,1,0,0,0-.2-.36.89.89,0,0,0-.32-.23A1.09,1.09,0,0,0,31.67,98.41Z"/><path class="cls-5" d="M36.56,98.62a.16.16,0,0,1-.15.09.28.28,0,0,1-.14,0l-.19-.1-.26-.1a1.24,1.24,0,0,0-.36,0,1.06,1.06,0,0,0-.32,0,.78.78,0,0,0-.25.13.56.56,0,0,0-.16.19.5.5,0,0,0-.05.23.38.38,0,0,0,.09.26.78.78,0,0,0,.24.18,2.07,2.07,0,0,0,.34.13l.39.12.39.15a1.4,1.4,0,0,1,.34.2.92.92,0,0,1,.24.29.9.9,0,0,1,.09.42,1.33,1.33,0,0,1-.1.52,1.13,1.13,0,0,1-.3.41,1.42,1.42,0,0,1-.48.27,2,2,0,0,1-.66.1,2,2,0,0,1-.77-.14,1.94,1.94,0,0,1-.58-.35l.17-.27a.24.24,0,0,1,.08-.08.21.21,0,0,1,.12,0,.27.27,0,0,1,.15.06l.19.12a1.5,1.5,0,0,0,.28.12,1.26,1.26,0,0,0,.41.06,1.11,1.11,0,0,0,.36-.05.76.76,0,0,0,.26-.15.58.58,0,0,0,.15-.21.66.66,0,0,0,0-.26.42.42,0,0,0-.09-.28.76.76,0,0,0-.24-.19,2,2,0,0,0-.34-.14l-.39-.12-.39-.15a1.37,1.37,0,0,1-.34-.21.93.93,0,0,1-.24-.31,1,1,0,0,1-.09-.44,1.08,1.08,0,0,1,.1-.45,1.1,1.1,0,0,1,.28-.38,1.38,1.38,0,0,1,.45-.26,1.81,1.81,0,0,1,.61-.1,1.94,1.94,0,0,1,.72.13,1.71,1.71,0,0,1,.55.35Z"/><path class="cls-5" d="M38.66,96.68a.46.46,0,0,1,0,.19.56.56,0,0,1-.11.16.52.52,0,0,1-.16.11.49.49,0,0,1-.2,0,.48.48,0,0,1-.19,0A.53.53,0,0,1,37.8,97a.52.52,0,0,1-.11-.16.47.47,0,0,1,0-.19.5.5,0,0,1,0-.2.52.52,0,0,1,.11-.16.53.53,0,0,1,.16-.11.47.47,0,0,1,.19,0,.49.49,0,0,1,.2,0,.52.52,0,0,1,.16.11.55.55,0,0,1,.11.16A.48.48,0,0,1,38.66,96.68Zm-.16,1.27V102h-.71V97.95Z"/><path class="cls-5" d="M42.61,102a.18.18,0,0,1-.19-.15l-.06-.49a2.14,2.14,0,0,1-.59.51,1.52,1.52,0,0,1-.77.19,1.46,1.46,0,0,1-.63-.13,1.31,1.31,0,0,1-.48-.39,1.87,1.87,0,0,1-.31-.65,3.34,3.34,0,0,1-.11-.89,2.79,2.79,0,0,1,.12-.83,2,2,0,0,1,.35-.67,1.59,1.59,0,0,1,1.29-.61,1.46,1.46,0,0,1,.64.13,1.52,1.52,0,0,1,.47.35V96.11H43V102Zm-1.38-.52a1.14,1.14,0,0,0,.61-.16,1.75,1.75,0,0,0,.48-.45v-2a1.13,1.13,0,0,0-.43-.37,1.24,1.24,0,0,0-.52-.11,1,1,0,0,0-.87.4,1.89,1.89,0,0,0-.3,1.15,2.93,2.93,0,0,0,.07.68,1.31,1.31,0,0,0,.2.46.78.78,0,0,0,.32.27A1.08,1.08,0,0,0,41.23,101.48Z"/><path class="cls-5" d="M45.83,97.89a1.81,1.81,0,0,1,.67.12,1.51,1.51,0,0,1,.53.35,1.61,1.61,0,0,1,.35.57,2.2,2.2,0,0,1,.13.77.46.46,0,0,1,0,.22.15.15,0,0,1-.14.06h-2.7a2.24,2.24,0,0,0,.1.67,1.36,1.36,0,0,0,.26.47,1.05,1.05,0,0,0,.4.28,1.37,1.37,0,0,0,.52.09,1.52,1.52,0,0,0,.46-.06,2.17,2.17,0,0,0,.33-.13l.23-.13a.31.31,0,0,1,.16-.06.16.16,0,0,1,.14.07l.2.26a1.36,1.36,0,0,1-.32.28,1.94,1.94,0,0,1-.39.19,2.5,2.5,0,0,1-.43.11,2.65,2.65,0,0,1-.44,0,2.06,2.06,0,0,1-.77-.14,1.7,1.7,0,0,1-.61-.42,1.91,1.91,0,0,1-.4-.68,2.76,2.76,0,0,1-.14-.93,2.37,2.37,0,0,1,.13-.79,1.87,1.87,0,0,1,.37-.64A1.72,1.72,0,0,1,45,98,2,2,0,0,1,45.83,97.89Zm0,.52a1.09,1.09,0,0,0-.81.3,1.4,1.4,0,0,0-.37.83h2.2a1.45,1.45,0,0,0-.07-.45,1,1,0,0,0-.2-.36.89.89,0,0,0-.32-.23A1.09,1.09,0,0,0,45.85,98.41Z"/><path class="cls-5" d="M48.42,102V97.95h.42a.18.18,0,0,1,.19.15l.06.44a2.28,2.28,0,0,1,.59-.47,1.53,1.53,0,0,1,.75-.18A1.47,1.47,0,0,1,51,98a1.13,1.13,0,0,1,.42.31,1.39,1.39,0,0,1,.26.49,2.12,2.12,0,0,1,.09.63V102h-.71V99.42a1.09,1.09,0,0,0-.21-.71.78.78,0,0,0-.64-.25,1.2,1.2,0,0,0-.59.15,2,2,0,0,0-.51.41v3Z"/><path class="cls-5" d="M54.1,102.07a1,1,0,0,1-.74-.27,1.07,1.07,0,0,1-.26-.77V98.55h-.49a.16.16,0,0,1-.11,0,.15.15,0,0,1,0-.12v-.28l.66-.08.16-1.25a.15.15,0,0,1,.05-.1.16.16,0,0,1,.11,0h.36V98H55v.52H53.81V101a.52.52,0,0,0,.12.38.43.43,0,0,0,.32.12.57.57,0,0,0,.19,0l.14-.07.1-.07.07,0a.12.12,0,0,1,.1.07l.21.34a1.32,1.32,0,0,1-.44.27A1.51,1.51,0,0,1,54.1,102.07Z"/><path class="cls-5" d="M58.17,98.62a.16.16,0,0,1-.15.09.28.28,0,0,1-.14,0l-.19-.1-.26-.1a1.24,1.24,0,0,0-.36,0,1.06,1.06,0,0,0-.32,0,.78.78,0,0,0-.25.13.56.56,0,0,0-.16.19.5.5,0,0,0-.05.23.38.38,0,0,0,.09.26.78.78,0,0,0,.24.18,2.07,2.07,0,0,0,.34.13l.39.12.39.15a1.4,1.4,0,0,1,.34.2.92.92,0,0,1,.24.29.9.9,0,0,1,.09.42,1.33,1.33,0,0,1-.1.52,1.13,1.13,0,0,1-.3.41,1.42,1.42,0,0,1-.48.27,2,2,0,0,1-.66.1,2,2,0,0,1-.77-.14,1.94,1.94,0,0,1-.58-.35l.17-.27a.24.24,0,0,1,.08-.08.21.21,0,0,1,.12,0,.27.27,0,0,1,.15.06l.19.12a1.5,1.5,0,0,0,.28.12,1.26,1.26,0,0,0,.41.06,1.11,1.11,0,0,0,.36-.05.76.76,0,0,0,.26-.15.58.58,0,0,0,.15-.21.66.66,0,0,0,0-.26.42.42,0,0,0-.09-.28.76.76,0,0,0-.24-.19,2,2,0,0,0-.34-.14l-.39-.12-.39-.15a1.37,1.37,0,0,1-.34-.21.93.93,0,0,1-.24-.31,1,1,0,0,1-.09-.44,1.08,1.08,0,0,1,.1-.45,1.1,1.1,0,0,1,.28-.38,1.38,1.38,0,0,1,.45-.26,1.81,1.81,0,0,1,.61-.1,1.94,1.94,0,0,1,.72.13,1.71,1.71,0,0,1,.55.35Z"/><path class="cls-5" d="M29.72,126.37h-.6a.26.26,0,0,1-.17-.05.32.32,0,0,1-.1-.13l-.54-1.38H25.75l-.54,1.38a.31.31,0,0,1-.1.13.25.25,0,0,1-.17.06h-.6l2.29-5.73h.79ZM26,124.24h2.14l-.9-2.33a4.33,4.33,0,0,1-.17-.54l-.09.3-.08.24Z"/><path class="cls-5" d="M31.13,120.48v5.89h-.71v-5.89Z"/><path class="cls-5" d="M33.17,120.48v5.89h-.71v-5.89Z"/><path class="cls-5" d="M34.25,123.67h2v.6h-2Z"/><path class="cls-5" d="M40.06,126.37a.18.18,0,0,1-.19-.15l-.06-.49a2.14,2.14,0,0,1-.59.51,1.52,1.52,0,0,1-.77.19,1.46,1.46,0,0,1-.63-.13,1.31,1.31,0,0,1-.48-.39,1.87,1.87,0,0,1-.31-.65,3.34,3.34,0,0,1-.11-.89,2.79,2.79,0,0,1,.12-.83,2,2,0,0,1,.35-.67,1.59,1.59,0,0,1,1.29-.61,1.46,1.46,0,0,1,.64.13,1.52,1.52,0,0,1,.47.35v-2.25h.71v5.89Zm-1.38-.52a1.14,1.14,0,0,0,.61-.16,1.75,1.75,0,0,0,.48-.45v-2a1.13,1.13,0,0,0-.43-.37,1.24,1.24,0,0,0-.52-.11,1,1,0,0,0-.87.4,1.89,1.89,0,0,0-.3,1.15,2.93,2.93,0,0,0,.07.68,1.31,1.31,0,0,0,.2.46.78.78,0,0,0,.32.27A1.08,1.08,0,0,0,38.68,125.85Z"/><path class="cls-5" d="M44.65,126.37h-.32a.37.37,0,0,1-.17,0,.17.17,0,0,1-.08-.14l-.08-.38-.31.26a1.76,1.76,0,0,1-.32.19,1.62,1.62,0,0,1-.36.12,2,2,0,0,1-.42,0,1.44,1.44,0,0,1-.44-.07,1,1,0,0,1-.36-.2.94.94,0,0,1-.24-.34,1.17,1.17,0,0,1-.09-.48.9.9,0,0,1,.13-.46,1.16,1.16,0,0,1,.43-.4,2.77,2.77,0,0,1,.77-.28A5.26,5.26,0,0,1,44,124.1v-.32a1.1,1.1,0,0,0-.2-.72.73.73,0,0,0-.6-.24,1.27,1.27,0,0,0-.44.07,1.65,1.65,0,0,0-.31.15l-.22.15a.32.32,0,0,1-.19.07.21.21,0,0,1-.13,0,.29.29,0,0,1-.09-.09l-.13-.23a2.31,2.31,0,0,1,.72-.48,2.23,2.23,0,0,1,.86-.16,1.54,1.54,0,0,1,.6.11,1.23,1.23,0,0,1,.44.31,1.32,1.32,0,0,1,.27.48,2,2,0,0,1,.09.62Zm-1.85-.44a1.45,1.45,0,0,0,.34,0,1.35,1.35,0,0,0,.29-.11,1.56,1.56,0,0,0,.26-.17,2.26,2.26,0,0,0,.25-.23v-.84a4.74,4.74,0,0,0-.84.06,2.34,2.34,0,0,0-.56.16.79.79,0,0,0-.31.24.51.51,0,0,0-.1.31.68.68,0,0,0,.05.28.53.53,0,0,0,.14.19.56.56,0,0,0,.21.11A.94.94,0,0,0,42.81,125.93Z"/><path class="cls-5" d="M46.79,127.57a.38.38,0,0,1-.09.13.25.25,0,0,1-.17,0H46l.74-1.61-1.67-3.82h.62a.21.21,0,0,1,.14,0,.29.29,0,0,1,.08.1L47,125l.06.18,0,.18.06-.18.06-.18,1.05-2.55a.23.23,0,0,1,.08-.11.21.21,0,0,1,.13,0h.57Z"/><path class="cls-5" d="M52.21,124v2.39h-.77v-5.73h1.62a3.54,3.54,0,0,1,.94.11,1.8,1.8,0,0,1,.65.32,1.27,1.27,0,0,1,.38.5,1.68,1.68,0,0,1,.12.66,1.65,1.65,0,0,1-.1.57,1.5,1.5,0,0,1-.28.47,1.67,1.67,0,0,1-.44.36,2.21,2.21,0,0,1-.59.22.82.82,0,0,1,.26.24l1.67,2.28H55a.34.34,0,0,1-.31-.16l-1.49-2A.44.44,0,0,0,53,124a.54.54,0,0,0-.24,0Zm0-.56H53a2,2,0,0,0,.6-.08,1.22,1.22,0,0,0,.43-.23,1,1,0,0,0,.26-.36,1.17,1.17,0,0,0,.09-.46.91.91,0,0,0-.34-.77,1.63,1.63,0,0,0-1-.26h-.85Z"/><path class="cls-5" d="M58,122.25a1.81,1.81,0,0,1,.67.12,1.51,1.51,0,0,1,.53.35,1.61,1.61,0,0,1,.35.57,2.2,2.2,0,0,1,.13.77.46.46,0,0,1,0,.22.15.15,0,0,1-.14.06h-2.7a2.24,2.24,0,0,0,.1.67,1.36,1.36,0,0,0,.26.47,1.05,1.05,0,0,0,.4.28,1.37,1.37,0,0,0,.52.09,1.52,1.52,0,0,0,.46-.06,2.17,2.17,0,0,0,.33-.13l.23-.13a.31.31,0,0,1,.16-.06.16.16,0,0,1,.14.07l.2.26a1.36,1.36,0,0,1-.32.28,1.94,1.94,0,0,1-.39.19,2.5,2.5,0,0,1-.43.11,2.65,2.65,0,0,1-.44,0,2.06,2.06,0,0,1-.77-.14,1.7,1.7,0,0,1-.61-.42,1.91,1.91,0,0,1-.4-.68,2.76,2.76,0,0,1-.14-.93,2.37,2.37,0,0,1,.13-.79,1.87,1.87,0,0,1,.37-.64,1.72,1.72,0,0,1,.6-.42A2,2,0,0,1,58,122.25Zm0,.52a1.09,1.09,0,0,0-.81.3,1.4,1.4,0,0,0-.37.83H59a1.45,1.45,0,0,0-.07-.45,1,1,0,0,0-.2-.36.89.89,0,0,0-.32-.23A1.09,1.09,0,0,0,58,122.78Z"/><path class="cls-5" d="M62.91,123a.16.16,0,0,1-.15.09.28.28,0,0,1-.14,0l-.19-.1-.26-.1a1.24,1.24,0,0,0-.36,0,1.06,1.06,0,0,0-.32,0,.78.78,0,0,0-.25.13.56.56,0,0,0-.16.19.5.5,0,0,0-.05.23.38.38,0,0,0,.09.26.78.78,0,0,0,.24.18,2.07,2.07,0,0,0,.34.13l.39.12.39.15a1.4,1.4,0,0,1,.34.2.92.92,0,0,1,.24.29.9.9,0,0,1,.09.42,1.33,1.33,0,0,1-.1.52,1.13,1.13,0,0,1-.3.41,1.42,1.42,0,0,1-.48.27,2,2,0,0,1-.66.1,2,2,0,0,1-.77-.14,1.94,1.94,0,0,1-.58-.35l.17-.27a.24.24,0,0,1,.08-.08.21.21,0,0,1,.12,0,.27.27,0,0,1,.15.06l.19.12a1.5,1.5,0,0,0,.28.12,1.26,1.26,0,0,0,.41.06,1.11,1.11,0,0,0,.36-.05.76.76,0,0,0,.26-.15.58.58,0,0,0,.15-.21.66.66,0,0,0,0-.26.42.42,0,0,0-.09-.28.76.76,0,0,0-.24-.19,2,2,0,0,0-.34-.14l-.39-.12-.39-.15a1.37,1.37,0,0,1-.34-.21.93.93,0,0,1-.24-.31,1,1,0,0,1-.09-.44,1.08,1.08,0,0,1,.1-.45,1.1,1.1,0,0,1,.28-.38,1.38,1.38,0,0,1,.45-.26,1.81,1.81,0,0,1,.61-.1,1.94,1.94,0,0,1,.72.13,1.71,1.71,0,0,1,.55.35Z"/><path class="cls-5" d="M65,121a.46.46,0,0,1,0,.19.56.56,0,0,1-.11.16.52.52,0,0,1-.16.11.49.49,0,0,1-.2,0,.48.48,0,0,1-.19,0,.53.53,0,0,1-.16-.11.52.52,0,0,1-.11-.16.47.47,0,0,1,0-.19.5.5,0,0,1,0-.2.52.52,0,0,1,.11-.16.53.53,0,0,1,.16-.11.47.47,0,0,1,.19,0,.49.49,0,0,1,.2,0,.52.52,0,0,1,.16.11.55.55,0,0,1,.11.16A.48.48,0,0,1,65,121Zm-.16,1.27v4.05h-.71v-4.05Z"/><path class="cls-5" d="M69,126.37a.18.18,0,0,1-.19-.15l-.06-.49a2.14,2.14,0,0,1-.59.51,1.52,1.52,0,0,1-.77.19,1.46,1.46,0,0,1-.63-.13,1.31,1.31,0,0,1-.48-.39,1.87,1.87,0,0,1-.31-.65,3.34,3.34,0,0,1-.11-.89,2.79,2.79,0,0,1,.12-.83,2,2,0,0,1,.35-.67,1.59,1.59,0,0,1,1.29-.61,1.46,1.46,0,0,1,.64.13,1.52,1.52,0,0,1,.47.35v-2.25h.71v5.89Zm-1.38-.52a1.14,1.14,0,0,0,.61-.16,1.75,1.75,0,0,0,.48-.45v-2a1.13,1.13,0,0,0-.43-.37,1.24,1.24,0,0,0-.52-.11,1,1,0,0,0-.87.4,1.89,1.89,0,0,0-.3,1.15,2.93,2.93,0,0,0,.07.68,1.31,1.31,0,0,0,.2.46.78.78,0,0,0,.32.27A1.08,1.08,0,0,0,67.58,125.85Z"/><path class="cls-5" d="M72.18,122.25a1.81,1.81,0,0,1,.67.12,1.51,1.51,0,0,1,.53.35,1.61,1.61,0,0,1,.35.57,2.2,2.2,0,0,1,.13.77.46.46,0,0,1,0,.22.15.15,0,0,1-.14.06H71a2.24,2.24,0,0,0,.1.67,1.36,1.36,0,0,0,.26.47,1.05,1.05,0,0,0,.4.28,1.37,1.37,0,0,0,.52.09,1.52,1.52,0,0,0,.46-.06,2.17,2.17,0,0,0,.33-.13l.23-.13a.31.31,0,0,1,.16-.06.16.16,0,0,1,.14.07l.2.26a1.36,1.36,0,0,1-.32.28,1.94,1.94,0,0,1-.39.19,2.5,2.5,0,0,1-.43.11,2.65,2.65,0,0,1-.44,0,2.06,2.06,0,0,1-.77-.14,1.7,1.7,0,0,1-.61-.42,1.91,1.91,0,0,1-.4-.68,2.76,2.76,0,0,1-.14-.93,2.37,2.37,0,0,1,.13-.79,1.87,1.87,0,0,1,.37-.64,1.72,1.72,0,0,1,.6-.42A2,2,0,0,1,72.18,122.25Zm0,.52a1.09,1.09,0,0,0-.81.3,1.4,1.4,0,0,0-.37.83h2.2a1.45,1.45,0,0,0-.07-.45,1,1,0,0,0-.2-.36.89.89,0,0,0-.32-.23A1.09,1.09,0,0,0,72.2,122.78Z"/><path class="cls-5" d="M74.77,126.37v-4.05h.42a.18.18,0,0,1,.19.15l.06.44a2.28,2.28,0,0,1,.59-.47,1.53,1.53,0,0,1,.75-.18,1.47,1.47,0,0,1,.59.11,1.13,1.13,0,0,1,.42.31,1.39,1.39,0,0,1,.26.49,2.12,2.12,0,0,1,.09.63v2.58h-.71v-2.58a1.09,1.09,0,0,0-.21-.71.78.78,0,0,0-.64-.25A1.2,1.2,0,0,0,76,123a2,2,0,0,0-.51.41v3Z"/><path class="cls-5" d="M80.45,126.43a1,1,0,0,1-.74-.27,1.07,1.07,0,0,1-.26-.77v-2.48H79a.16.16,0,0,1-.11,0,.15.15,0,0,1,0-.12v-.28l.66-.08.16-1.25a.15.15,0,0,1,.05-.1.16.16,0,0,1,.11,0h.36v1.4h1.16v.52H80.16v2.43a.52.52,0,0,0,.12.38.43.43,0,0,0,.32.12.57.57,0,0,0,.19,0l.14-.07.1-.07.07,0a.12.12,0,0,1,.1.07l.21.34a1.32,1.32,0,0,1-.44.27A1.51,1.51,0,0,1,80.45,126.43Z"/><path class="cls-5" d="M84.52,123a.16.16,0,0,1-.15.09.28.28,0,0,1-.14,0l-.19-.1-.26-.1a1.24,1.24,0,0,0-.36,0,1.06,1.06,0,0,0-.32,0,.78.78,0,0,0-.25.13.56.56,0,0,0-.16.19.5.5,0,0,0-.05.23.38.38,0,0,0,.09.26.78.78,0,0,0,.24.18,2.07,2.07,0,0,0,.34.13l.39.12.39.15a1.4,1.4,0,0,1,.34.2.92.92,0,0,1,.24.29.9.9,0,0,1,.09.42,1.33,1.33,0,0,1-.1.52,1.13,1.13,0,0,1-.3.41,1.42,1.42,0,0,1-.48.27,2,2,0,0,1-.66.1,2,2,0,0,1-.77-.14,1.94,1.94,0,0,1-.58-.35l.17-.27a.24.24,0,0,1,.08-.08.21.21,0,0,1,.12,0,.27.27,0,0,1,.15.06l.19.12a1.5,1.5,0,0,0,.28.12,1.26,1.26,0,0,0,.41.06,1.11,1.11,0,0,0,.36-.05.76.76,0,0,0,.26-.15.58.58,0,0,0,.15-.21.66.66,0,0,0,0-.26A.42.42,0,0,0,84,125a.76.76,0,0,0-.24-.19,2,2,0,0,0-.34-.14l-.39-.12-.39-.15a1.37,1.37,0,0,1-.34-.21.93.93,0,0,1-.24-.31,1,1,0,0,1-.09-.44,1.08,1.08,0,0,1,.1-.45,1.1,1.1,0,0,1,.28-.38,1.38,1.38,0,0,1,.45-.26,1.81,1.81,0,0,1,.61-.1,1.94,1.94,0,0,1,.72.13,1.71,1.71,0,0,1,.55.35Z"/><path class="cls-5" d="M87.28,126.45a.42.42,0,0,1-.17.21.42.42,0,0,1-.23.07h-.3l2.4-6a.43.43,0,0,1,.15-.2.39.39,0,0,1,.23-.07h.3Z"/><path class="cls-5" d="M24.37,130.24H25a.27.27,0,0,1,.17.05.25.25,0,0,1,.09.13l1.18,4c0,.07,0,.15.06.23l0,.26.06-.26a2.09,2.09,0,0,1,.06-.23l1.35-4a.29.29,0,0,1,.09-.13.26.26,0,0,1,.17-.06h.22a.27.27,0,0,1,.17.05.29.29,0,0,1,.09.13l1.34,4a3.89,3.89,0,0,1,.13.48l0-.25a1.76,1.76,0,0,1,.05-.22l1.19-4a.25.25,0,0,1,.09-.13.26.26,0,0,1,.17-.06h.6L30.62,136h-.7l-1.45-4.37a2.41,2.41,0,0,1-.08-.29l0,.15,0,.13L26.85,136h-.7Z"/><path class="cls-5" d="M34.56,131.85a2.08,2.08,0,0,1,.8.15,1.68,1.68,0,0,1,.61.42,1.85,1.85,0,0,1,.38.66,2.85,2.85,0,0,1,0,1.73,1.86,1.86,0,0,1-.38.66,1.67,1.67,0,0,1-.61.42,2.28,2.28,0,0,1-1.6,0,1.69,1.69,0,0,1-.61-.42,1.88,1.88,0,0,1-.39-.66,2.81,2.81,0,0,1,0-1.73,1.87,1.87,0,0,1,.39-.66,1.7,1.7,0,0,1,.61-.42A2.08,2.08,0,0,1,34.56,131.85Zm0,3.62a1,1,0,0,0,.9-.4,2.29,2.29,0,0,0,0-2.25,1,1,0,0,0-.9-.4,1.25,1.25,0,0,0-.53.1,1,1,0,0,0-.37.3,1.33,1.33,0,0,0-.22.48,2.84,2.84,0,0,0,0,1.29,1.32,1.32,0,0,0,.22.48,1,1,0,0,0,.37.3A1.25,1.25,0,0,0,34.56,135.47Z"/><path class="cls-5" d="M37.37,136v-4.05h.41a.22.22,0,0,1,.16,0,.27.27,0,0,1,.06.15l0,.63a1.85,1.85,0,0,1,.51-.66,1.14,1.14,0,0,1,.72-.24,1.13,1.13,0,0,1,.3,0,1.05,1.05,0,0,1,.25.11l-.09.53a.12.12,0,0,1-.12.1l-.17,0a1.1,1.1,0,0,0-.32,0,.92.92,0,0,0-.62.22,1.63,1.63,0,0,0-.42.63V136Z"/><path class="cls-5" d="M41.33,130.08v3.47h.18l.13,0a.37.37,0,0,0,.12-.09L43,132.06l.12-.1a.29.29,0,0,1,.16,0H44l-1.49,1.59-.11.12-.12.09.13.11.11.14,1.58,2h-.64a.31.31,0,0,1-.15,0,.39.39,0,0,1-.12-.11l-1.33-1.66a.31.31,0,0,0-.12-.11.48.48,0,0,0-.18,0h-.2V136h-.72v-5.89Z"/><path class="cls-5" d="M46.15,131.85a1.81,1.81,0,0,1,.67.12,1.51,1.51,0,0,1,.53.35,1.61,1.61,0,0,1,.35.57,2.2,2.2,0,0,1,.13.77.46.46,0,0,1,0,.22.15.15,0,0,1-.14.06H45a2.24,2.24,0,0,0,.1.67,1.36,1.36,0,0,0,.26.47,1.05,1.05,0,0,0,.4.28,1.37,1.37,0,0,0,.52.09,1.52,1.52,0,0,0,.46-.06,2.17,2.17,0,0,0,.33-.13l.23-.13a.31.31,0,0,1,.16-.06.16.16,0,0,1,.14.07l.2.26a1.36,1.36,0,0,1-.32.28,1.94,1.94,0,0,1-.39.19,2.5,2.5,0,0,1-.43.11,2.65,2.65,0,0,1-.44,0,2.06,2.06,0,0,1-.77-.14,1.7,1.7,0,0,1-.61-.42,1.91,1.91,0,0,1-.4-.68,2.76,2.76,0,0,1-.14-.93,2.37,2.37,0,0,1,.13-.79,1.87,1.87,0,0,1,.37-.64,1.72,1.72,0,0,1,.6-.42A2,2,0,0,1,46.15,131.85Zm0,.52a1.09,1.09,0,0,0-.81.3,1.4,1.4,0,0,0-.37.83h2.2a1.45,1.45,0,0,0-.07-.45,1,1,0,0,0-.2-.36.89.89,0,0,0-.32-.23A1.09,1.09,0,0,0,46.16,132.38Z"/><path class="cls-5" d="M48.73,136v-4.05h.41a.22.22,0,0,1,.16,0,.27.27,0,0,1,.06.15l0,.63a1.85,1.85,0,0,1,.51-.66,1.14,1.14,0,0,1,.72-.24,1.13,1.13,0,0,1,.3,0,1.05,1.05,0,0,1,.25.11l-.09.53a.12.12,0,0,1-.12.1l-.17,0a1.1,1.1,0,0,0-.32,0,.92.92,0,0,0-.62.22,1.63,1.63,0,0,0-.42.63V136Z"/><path class="cls-5" d="M54.28,132.59a.16.16,0,0,1-.15.09.28.28,0,0,1-.14,0l-.19-.1-.26-.1a1.24,1.24,0,0,0-.36,0,1.06,1.06,0,0,0-.32,0,.78.78,0,0,0-.25.13.56.56,0,0,0-.16.19.5.5,0,0,0-.05.23.38.38,0,0,0,.09.26.78.78,0,0,0,.24.18,2.07,2.07,0,0,0,.34.13l.39.12.39.15a1.4,1.4,0,0,1,.34.2.92.92,0,0,1,.24.29.9.9,0,0,1,.09.42,1.33,1.33,0,0,1-.1.52,1.13,1.13,0,0,1-.3.41,1.42,1.42,0,0,1-.48.27,2,2,0,0,1-.66.1,2,2,0,0,1-.77-.14,1.94,1.94,0,0,1-.58-.35l.17-.27a.24.24,0,0,1,.08-.08.21.21,0,0,1,.12,0,.27.27,0,0,1,.15.06l.19.12a1.5,1.5,0,0,0,.28.12,1.26,1.26,0,0,0,.41.06,1.11,1.11,0,0,0,.36-.05.76.76,0,0,0,.26-.15.58.58,0,0,0,.15-.21.66.66,0,0,0,0-.26.42.42,0,0,0-.09-.28.76.76,0,0,0-.24-.19,2,2,0,0,0-.34-.14l-.39-.12L52.4,134a1.37,1.37,0,0,1-.34-.21.93.93,0,0,1-.24-.31,1,1,0,0,1-.09-.44,1.08,1.08,0,0,1,.1-.45,1.1,1.1,0,0,1,.28-.38,1.38,1.38,0,0,1,.45-.26,1.81,1.81,0,0,1,.61-.1,1.94,1.94,0,0,1,.72.13,1.71,1.71,0,0,1,.55.35Z"/><path class="cls-5" d="M56.45,131.92H57a.22.22,0,0,1,.14,0,.22.22,0,0,1,.08.1l.78,2.61.06.28q0,.13,0,.27,0-.14.07-.27l.08-.28.86-2.62a.21.21,0,0,1,.07-.1.2.2,0,0,1,.13,0h.31a.21.21,0,0,1,.13,0,.21.21,0,0,1,.07.1l.84,2.62c0,.09.06.19.08.28l.07.27c0-.09,0-.18.05-.28s0-.19.07-.27l.79-2.61a.2.2,0,0,1,.08-.11.21.21,0,0,1,.13,0h.54L61.15,136h-.56c-.07,0-.12,0-.14-.14l-.9-2.75a1.51,1.51,0,0,1-.05-.19l0-.19,0,.19a1.55,1.55,0,0,1-.05.19l-.91,2.74a.17.17,0,0,1-.16.14h-.54Z"/><path class="cls-5" d="M63.1,136v-5.89h.71v2.38a2.19,2.19,0,0,1,.58-.44,1.55,1.55,0,0,1,.73-.17,1.47,1.47,0,0,1,.59.11,1.13,1.13,0,0,1,.42.31,1.39,1.39,0,0,1,.26.49,2.12,2.12,0,0,1,.09.63V136h-.71v-2.58a1.09,1.09,0,0,0-.21-.71.78.78,0,0,0-.64-.25,1.2,1.2,0,0,0-.59.15,2,2,0,0,0-.51.41v3Z"/><path class="cls-5" d="M69.19,131.85a2.08,2.08,0,0,1,.8.15,1.68,1.68,0,0,1,.61.42,1.85,1.85,0,0,1,.38.66,2.85,2.85,0,0,1,0,1.73,1.86,1.86,0,0,1-.38.66,1.67,1.67,0,0,1-.61.42,2.28,2.28,0,0,1-1.6,0,1.69,1.69,0,0,1-.61-.42,1.88,1.88,0,0,1-.39-.66,2.81,2.81,0,0,1,0-1.73,1.87,1.87,0,0,1,.39-.66,1.7,1.7,0,0,1,.61-.42A2.08,2.08,0,0,1,69.19,131.85Zm0,3.62a1,1,0,0,0,.9-.4,2.29,2.29,0,0,0,0-2.25,1,1,0,0,0-.9-.4,1.25,1.25,0,0,0-.53.1,1,1,0,0,0-.37.3,1.33,1.33,0,0,0-.22.48,2.84,2.84,0,0,0,0,1.29,1.32,1.32,0,0,0,.22.48,1,1,0,0,0,.37.3A1.25,1.25,0,0,0,69.19,135.47Z"/><path class="cls-5" d="M76.52,136H76.2a.37.37,0,0,1-.17,0,.17.17,0,0,1-.08-.14l-.08-.38-.31.26a1.76,1.76,0,0,1-.32.19,1.62,1.62,0,0,1-.36.12,2,2,0,0,1-.42,0A1.44,1.44,0,0,1,74,136a1,1,0,0,1-.36-.2.94.94,0,0,1-.24-.34,1.17,1.17,0,0,1-.09-.48.9.9,0,0,1,.13-.46,1.16,1.16,0,0,1,.43-.4,2.77,2.77,0,0,1,.77-.28,5.26,5.26,0,0,1,1.16-.11v-.32a1.1,1.1,0,0,0-.2-.72.73.73,0,0,0-.6-.24,1.27,1.27,0,0,0-.44.07,1.65,1.65,0,0,0-.31.15l-.22.15a.32.32,0,0,1-.19.07.21.21,0,0,1-.13,0,.29.29,0,0,1-.09-.09l-.13-.23a2.31,2.31,0,0,1,.72-.48,2.23,2.23,0,0,1,.86-.16,1.54,1.54,0,0,1,.6.11,1.23,1.23,0,0,1,.44.31,1.32,1.32,0,0,1,.27.48,2,2,0,0,1,.09.62Zm-1.85-.44a1.45,1.45,0,0,0,.34,0,1.35,1.35,0,0,0,.29-.11,1.56,1.56,0,0,0,.26-.17,2.26,2.26,0,0,0,.25-.23v-.84a4.74,4.74,0,0,0-.84.06,2.34,2.34,0,0,0-.56.16.79.79,0,0,0-.31.24.51.51,0,0,0-.1.31.68.68,0,0,0,.05.28.53.53,0,0,0,.14.19.56.56,0,0,0,.21.11A.94.94,0,0,0,74.67,135.53Z"/><path class="cls-5" d="M77.6,136v-4.05H78a.22.22,0,0,1,.16,0,.27.27,0,0,1,.06.15l0,.63a1.85,1.85,0,0,1,.51-.66,1.14,1.14,0,0,1,.72-.24,1.13,1.13,0,0,1,.3,0,1.05,1.05,0,0,1,.25.11l-.09.53a.12.12,0,0,1-.12.1l-.17,0a1.1,1.1,0,0,0-.32,0,.92.92,0,0,0-.62.22,1.63,1.63,0,0,0-.42.63V136Z"/><path class="cls-5" d="M82.43,131.85a1.81,1.81,0,0,1,.67.12,1.51,1.51,0,0,1,.53.35,1.61,1.61,0,0,1,.35.57,2.2,2.2,0,0,1,.13.77.46.46,0,0,1,0,.22.15.15,0,0,1-.14.06h-2.7a2.24,2.24,0,0,0,.1.67,1.36,1.36,0,0,0,.26.47,1.05,1.05,0,0,0,.4.28,1.37,1.37,0,0,0,.52.09,1.52,1.52,0,0,0,.46-.06,2.17,2.17,0,0,0,.33-.13l.23-.13a.31.31,0,0,1,.16-.06.16.16,0,0,1,.14.07l.2.26a1.36,1.36,0,0,1-.32.28,1.94,1.94,0,0,1-.39.19,2.5,2.5,0,0,1-.43.11,2.65,2.65,0,0,1-.44,0,2.06,2.06,0,0,1-.77-.14,1.7,1.7,0,0,1-.61-.42,1.91,1.91,0,0,1-.4-.68,2.76,2.76,0,0,1-.14-.93,2.37,2.37,0,0,1,.13-.79,1.87,1.87,0,0,1,.37-.64,1.72,1.72,0,0,1,.6-.42A2,2,0,0,1,82.43,131.85Zm0,.52a1.09,1.09,0,0,0-.81.3,1.4,1.4,0,0,0-.37.83h2.2a1.45,1.45,0,0,0-.07-.45,1,1,0,0,0-.2-.36.89.89,0,0,0-.32-.23A1.09,1.09,0,0,0,82.44,132.38Z"/><path class="cls-5" d="M87.52,133.58V136h-.77v-5.73h1.62a3.54,3.54,0,0,1,.94.11,1.8,1.8,0,0,1,.65.32,1.27,1.27,0,0,1,.38.5,1.68,1.68,0,0,1,.12.66,1.65,1.65,0,0,1-.1.57,1.5,1.5,0,0,1-.28.47,1.67,1.67,0,0,1-.44.36,2.21,2.21,0,0,1-.59.22.82.82,0,0,1,.26.24L91,136H90.3a.34.34,0,0,1-.31-.16l-1.49-2a.44.44,0,0,0-.15-.14.54.54,0,0,0-.24,0Zm0-.56h.81a2,2,0,0,0,.6-.08,1.22,1.22,0,0,0,.43-.23,1,1,0,0,0,.26-.36,1.17,1.17,0,0,0,.09-.46.91.91,0,0,0-.34-.77,1.63,1.63,0,0,0-1-.26h-.85Z"/><path class="cls-5" d="M93.31,131.85A1.81,1.81,0,0,1,94,132a1.51,1.51,0,0,1,.53.35,1.61,1.61,0,0,1,.35.57,2.2,2.2,0,0,1,.13.77.46.46,0,0,1,0,.22.15.15,0,0,1-.14.06h-2.7a2.24,2.24,0,0,0,.1.67,1.36,1.36,0,0,0,.26.47,1.05,1.05,0,0,0,.4.28,1.37,1.37,0,0,0,.52.09,1.52,1.52,0,0,0,.46-.06,2.17,2.17,0,0,0,.33-.13l.23-.13a.31.31,0,0,1,.16-.06.16.16,0,0,1,.14.07l.2.26a1.36,1.36,0,0,1-.32.28,1.94,1.94,0,0,1-.39.19,2.5,2.5,0,0,1-.43.11,2.65,2.65,0,0,1-.44,0,2.06,2.06,0,0,1-.77-.14,1.7,1.7,0,0,1-.61-.42,1.91,1.91,0,0,1-.4-.68,2.76,2.76,0,0,1-.14-.93,2.37,2.37,0,0,1,.13-.79,1.87,1.87,0,0,1,.37-.64,1.72,1.72,0,0,1,.6-.42A2,2,0,0,1,93.31,131.85Zm0,.52a1.09,1.09,0,0,0-.81.3,1.4,1.4,0,0,0-.37.83h2.2a1.45,1.45,0,0,0-.07-.45,1,1,0,0,0-.2-.36.89.89,0,0,0-.32-.23A1.09,1.09,0,0,0,93.33,132.38Z"/><path class="cls-5" d="M98.22,132.59a.16.16,0,0,1-.15.09.28.28,0,0,1-.14,0l-.19-.1-.26-.1a1.24,1.24,0,0,0-.36,0,1.06,1.06,0,0,0-.32,0,.78.78,0,0,0-.25.13.56.56,0,0,0-.16.19.5.5,0,0,0-.05.23.38.38,0,0,0,.09.26.78.78,0,0,0,.24.18,2.07,2.07,0,0,0,.34.13l.39.12.39.15a1.4,1.4,0,0,1,.34.2.92.92,0,0,1,.24.29.9.9,0,0,1,.09.42,1.33,1.33,0,0,1-.1.52,1.13,1.13,0,0,1-.3.41,1.42,1.42,0,0,1-.48.27,2,2,0,0,1-.66.1,2,2,0,0,1-.77-.14,1.94,1.94,0,0,1-.58-.35l.17-.27a.24.24,0,0,1,.08-.08.21.21,0,0,1,.12,0,.27.27,0,0,1,.15.06l.19.12a1.5,1.5,0,0,0,.28.12,1.26,1.26,0,0,0,.41.06,1.11,1.11,0,0,0,.36-.05.76.76,0,0,0,.26-.15.58.58,0,0,0,.15-.21.66.66,0,0,0,0-.26.42.42,0,0,0-.09-.28.76.76,0,0,0-.24-.19,2,2,0,0,0-.34-.14l-.39-.12-.39-.15a1.37,1.37,0,0,1-.34-.21.93.93,0,0,1-.24-.31,1,1,0,0,1-.09-.44,1.08,1.08,0,0,1,.1-.45,1.1,1.1,0,0,1,.28-.38,1.38,1.38,0,0,1,.45-.26,1.81,1.81,0,0,1,.61-.1,1.94,1.94,0,0,1,.72.13,1.71,1.71,0,0,1,.55.35Z"/><path class="cls-5" d="M100.33,130.65a.46.46,0,0,1,0,.19.56.56,0,0,1-.11.16.52.52,0,0,1-.16.11.49.49,0,0,1-.2,0,.48.48,0,0,1-.19,0,.53.53,0,0,1-.16-.11.52.52,0,0,1-.11-.16.47.47,0,0,1,0-.19.5.5,0,0,1,0-.2.52.52,0,0,1,.11-.16.53.53,0,0,1,.16-.11.47.47,0,0,1,.19,0,.49.49,0,0,1,.2,0,.52.52,0,0,1,.16.11.55.55,0,0,1,.11.16A.48.48,0,0,1,100.33,130.65Zm-.16,1.27V136h-.71v-4.05Z"/><path class="cls-5" d="M104.27,136a.18.18,0,0,1-.19-.15l-.06-.49a2.14,2.14,0,0,1-.59.51,1.52,1.52,0,0,1-.77.19,1.46,1.46,0,0,1-.63-.13,1.31,1.31,0,0,1-.48-.39,1.87,1.87,0,0,1-.31-.65,3.34,3.34,0,0,1-.11-.89,2.79,2.79,0,0,1,.12-.83,2,2,0,0,1,.35-.67,1.59,1.59,0,0,1,1.29-.61,1.46,1.46,0,0,1,.64.13,1.52,1.52,0,0,1,.47.35v-2.25h.71V136Zm-1.38-.52a1.14,1.14,0,0,0,.61-.16,1.75,1.75,0,0,0,.48-.45v-2a1.13,1.13,0,0,0-.43-.37,1.24,1.24,0,0,0-.52-.11,1,1,0,0,0-.87.4,1.89,1.89,0,0,0-.3,1.15,2.93,2.93,0,0,0,.07.68,1.31,1.31,0,0,0,.2.46.78.78,0,0,0,.32.27A1.08,1.08,0,0,0,102.89,135.45Z"/><path class="cls-5" d="M107.5,131.85a1.81,1.81,0,0,1,.67.12,1.51,1.51,0,0,1,.53.35,1.61,1.61,0,0,1,.35.57,2.2,2.2,0,0,1,.13.77.46.46,0,0,1,0,.22.15.15,0,0,1-.14.06h-2.7a2.24,2.24,0,0,0,.1.67,1.36,1.36,0,0,0,.26.47,1.05,1.05,0,0,0,.4.28,1.37,1.37,0,0,0,.52.09,1.52,1.52,0,0,0,.46-.06,2.17,2.17,0,0,0,.33-.13l.23-.13a.31.31,0,0,1,.16-.06.16.16,0,0,1,.14.07l.2.26a1.36,1.36,0,0,1-.32.28,1.94,1.94,0,0,1-.39.19,2.5,2.5,0,0,1-.43.11,2.65,2.65,0,0,1-.44,0,2.06,2.06,0,0,1-.77-.14,1.7,1.7,0,0,1-.61-.42,1.91,1.91,0,0,1-.4-.68,2.76,2.76,0,0,1-.14-.93,2.37,2.37,0,0,1,.13-.79,1.87,1.87,0,0,1,.37-.64,1.72,1.72,0,0,1,.6-.42A2,2,0,0,1,107.5,131.85Zm0,.52a1.09,1.09,0,0,0-.81.3,1.4,1.4,0,0,0-.37.83h2.2a1.45,1.45,0,0,0-.07-.45,1,1,0,0,0-.2-.36.89.89,0,0,0-.32-.23A1.09,1.09,0,0,0,107.51,132.38Z"/><path class="cls-5" d="M110.09,136v-4.05h.42a.18.18,0,0,1,.19.15l.06.44a2.28,2.28,0,0,1,.59-.47,1.53,1.53,0,0,1,.75-.18,1.47,1.47,0,0,1,.59.11,1.13,1.13,0,0,1,.42.31,1.39,1.39,0,0,1,.26.49,2.12,2.12,0,0,1,.09.63V136h-.71v-2.58a1.09,1.09,0,0,0-.21-.71.78.78,0,0,0-.64-.25,1.2,1.2,0,0,0-.59.15,2,2,0,0,0-.51.41v3Z"/><path class="cls-5" d="M115.76,136a1,1,0,0,1-.74-.27,1.07,1.07,0,0,1-.26-.77v-2.48h-.49a.16.16,0,0,1-.11,0,.15.15,0,0,1,0-.12v-.28l.66-.08.16-1.25a.15.15,0,0,1,.05-.1.16.16,0,0,1,.11,0h.36V132h1.16v.52h-1.16v2.43a.52.52,0,0,0,.12.38.43.43,0,0,0,.32.12.57.57,0,0,0,.19,0l.14-.07.1-.07.07,0a.12.12,0,0,1,.1.07l.21.34a1.32,1.32,0,0,1-.44.27A1.51,1.51,0,0,1,115.76,136Z"/><path class="cls-5" d="M119.84,132.59a.16.16,0,0,1-.15.09.28.28,0,0,1-.14,0l-.19-.1-.26-.1a1.24,1.24,0,0,0-.36,0,1.06,1.06,0,0,0-.32,0,.78.78,0,0,0-.25.13.56.56,0,0,0-.16.19.5.5,0,0,0-.05.23.38.38,0,0,0,.09.26.78.78,0,0,0,.24.18,2.07,2.07,0,0,0,.34.13l.39.12.39.15a1.4,1.4,0,0,1,.34.2.92.92,0,0,1,.24.29.9.9,0,0,1,.09.42,1.33,1.33,0,0,1-.1.52,1.13,1.13,0,0,1-.3.41,1.42,1.42,0,0,1-.48.27,2,2,0,0,1-.66.1,2,2,0,0,1-.77-.14,1.94,1.94,0,0,1-.58-.35l.17-.27a.24.24,0,0,1,.08-.08.21.21,0,0,1,.12,0,.27.27,0,0,1,.15.06l.19.12a1.5,1.5,0,0,0,.28.12,1.26,1.26,0,0,0,.41.06,1.11,1.11,0,0,0,.36-.05.76.76,0,0,0,.26-.15.58.58,0,0,0,.15-.21.66.66,0,0,0,0-.26.42.42,0,0,0-.09-.28.76.76,0,0,0-.24-.19,2,2,0,0,0-.34-.14l-.39-.12L118,134a1.37,1.37,0,0,1-.34-.21.93.93,0,0,1-.24-.31,1,1,0,0,1-.09-.44,1.08,1.08,0,0,1,.1-.45,1.1,1.1,0,0,1,.28-.38,1.38,1.38,0,0,1,.45-.26,1.81,1.81,0,0,1,.61-.1,1.94,1.94,0,0,1,.72.13,1.71,1.71,0,0,1,.55.35Z"/><rect class="cls-6" x="160.92" y="152.95" width="8.48" height="8.48" rx="4.24" ry="4.24" transform="translate(330.33 314.37) rotate(180)"/><line class="cls-7" x1="164.78" y1="157.19" x2="325.43" y2="157.19"/><rect class="cls-6" x="320.78" y="152.95" width="8.48" height="8.48" rx="4.24" ry="4.24"/><rect class="cls-6" x="221.98" y="148.85" width="46.23" height="16.67" rx="8.34" ry="8.34"/><path class="cls-8" d="M234.73,157.19l3.71-1.91v.55l-3.13,1.57v0l3.13,1.57v.55l-3.71-1.91Z"/><path class="cls-8" d="M244,154.83a2.54,2.54,0,0,0-.53,0,2.11,2.11,0,0,0-1.81,1.85h0a1.58,1.58,0,0,1,2.82,1.08,1.74,1.74,0,0,1-1.73,1.83c-1.11,0-1.84-.86-1.84-2.21a3.27,3.27,0,0,1,.88-2.34,2.83,2.83,0,0,1,1.66-.77,3.41,3.41,0,0,1,.51,0Zm-.2,3a1.06,1.06,0,0,0-1.07-1.19,1.16,1.16,0,0,0-1,.64.6.6,0,0,0-.08.31c0,.86.41,1.49,1.14,1.49S243.79,158.58,243.79,157.83Z"/><path class="cls-8" d="M248.59,156.88c0,1.77-.66,2.74-1.81,2.74s-1.7-1-1.72-2.67.75-2.7,1.81-2.7S248.59,155.23,248.59,156.88Zm-2.82.08c0,1.35.42,2.12,1.06,2.12s1.06-.84,1.06-2.17-.33-2.12-1.06-2.12S245.76,155.55,245.76,157Z"/><path class="cls-8" d="M251.58,155.8c0,1.1-.58,1.64-1.25,1.64s-1.21-.52-1.22-1.57.57-1.62,1.26-1.62S251.58,154.81,251.58,155.8Zm-1.9,0c0,.66.23,1.17.67,1.17s.67-.5.67-1.18-.18-1.16-.67-1.16S249.68,155.19,249.68,155.85Zm.61,3.77,3.05-5.37h.45l-3.05,5.37ZM255,158c0,1.1-.58,1.64-1.24,1.64s-1.21-.52-1.22-1.56.57-1.63,1.26-1.63S255,157,255,158Zm-1.9,0c0,.66.25,1.17.68,1.17s.67-.5.67-1.18-.18-1.16-.67-1.16S253.06,157.34,253.06,158Z"/><line class="cls-1" x1="141.73" y1="100" x2="668.68" y2="100"/><line class="cls-1" x1="141.73" y1="185.81" x2="668.68" y2="185.81"/><path class="cls-5" d="M30,214a3.22,3.22,0,0,1-.2,1.17,2.59,2.59,0,0,1-.58.9,2.56,2.56,0,0,1-.89.58,3.11,3.11,0,0,1-1.15.21H25v-5.73h2.14a3.11,3.11,0,0,1,1.15.21,2.55,2.55,0,0,1,.89.58,2.61,2.61,0,0,1,.58.91A3.22,3.22,0,0,1,30,214Zm-.8,0a2.89,2.89,0,0,0-.14-.94,2,2,0,0,0-.41-.7,1.74,1.74,0,0,0-.64-.44,2.22,2.22,0,0,0-.84-.15H25.79v4.48h1.36a2.22,2.22,0,0,0,.84-.15,1.75,1.75,0,0,0,.64-.44,2,2,0,0,0,.41-.7A2.89,2.89,0,0,0,29.18,214Z"/><path class="cls-5" d="M31.87,211.54a.46.46,0,0,1,0,.19.56.56,0,0,1-.11.16.52.52,0,0,1-.16.11.49.49,0,0,1-.2,0,.48.48,0,0,1-.19,0,.53.53,0,0,1-.16-.11.52.52,0,0,1-.11-.16.47.47,0,0,1,0-.19.5.5,0,0,1,0-.2.52.52,0,0,1,.11-.16.53.53,0,0,1,.16-.11.47.47,0,0,1,.19,0,.49.49,0,0,1,.2,0,.52.52,0,0,1,.16.11.55.55,0,0,1,.11.16A.48.48,0,0,1,31.87,211.54Zm-.16,1.27v4.05H31v-4.05Z"/><path class="cls-5" d="M33,216.87v-4.05h.42a.18.18,0,0,1,.19.15l.06.44a2.28,2.28,0,0,1,.59-.47,1.53,1.53,0,0,1,.75-.18,1.47,1.47,0,0,1,.59.11,1.13,1.13,0,0,1,.42.31,1.39,1.39,0,0,1,.26.49,2.12,2.12,0,0,1,.09.63v2.58h-.71v-2.58a1.09,1.09,0,0,0-.21-.71.78.78,0,0,0-.64-.25,1.2,1.2,0,0,0-.59.15,2,2,0,0,0-.51.41v3Z"/><path class="cls-5" d="M37.41,216.87v-4.05h.42A.18.18,0,0,1,38,213l.06.44a2.28,2.28,0,0,1,.59-.47,1.53,1.53,0,0,1,.75-.18,1.47,1.47,0,0,1,.59.11,1.13,1.13,0,0,1,.42.31,1.39,1.39,0,0,1,.26.49,2.12,2.12,0,0,1,.09.63v2.58h-.71v-2.58a1.09,1.09,0,0,0-.21-.71.78.78,0,0,0-.64-.25,1.2,1.2,0,0,0-.59.15,2,2,0,0,0-.51.41v3Z"/><path class="cls-5" d="M43.47,212.75a1.81,1.81,0,0,1,.67.12,1.51,1.51,0,0,1,.53.35,1.61,1.61,0,0,1,.35.57,2.2,2.2,0,0,1,.13.77.46.46,0,0,1,0,.22.15.15,0,0,1-.14.06h-2.7a2.24,2.24,0,0,0,.1.67,1.36,1.36,0,0,0,.26.47,1.05,1.05,0,0,0,.4.28,1.37,1.37,0,0,0,.52.09,1.52,1.52,0,0,0,.46-.06,2.17,2.17,0,0,0,.33-.13l.23-.13a.31.31,0,0,1,.16-.06.16.16,0,0,1,.14.07l.2.26a1.36,1.36,0,0,1-.32.28,1.94,1.94,0,0,1-.39.19,2.5,2.5,0,0,1-.43.11,2.65,2.65,0,0,1-.44,0,2.06,2.06,0,0,1-.77-.14,1.7,1.7,0,0,1-.61-.42,1.91,1.91,0,0,1-.4-.68,2.76,2.76,0,0,1-.14-.93,2.37,2.37,0,0,1,.13-.79,1.87,1.87,0,0,1,.37-.64,1.72,1.72,0,0,1,.6-.42A2,2,0,0,1,43.47,212.75Zm0,.52a1.09,1.09,0,0,0-.81.3,1.4,1.4,0,0,0-.37.83h2.2a1.45,1.45,0,0,0-.07-.45,1,1,0,0,0-.2-.36.89.89,0,0,0-.32-.23A1.09,1.09,0,0,0,43.48,213.28Z"/><path class="cls-5" d="M46.05,216.87v-4.05h.41a.22.22,0,0,1,.16,0,.27.27,0,0,1,.06.15l0,.63a1.85,1.85,0,0,1,.51-.66,1.14,1.14,0,0,1,.72-.24,1.13,1.13,0,0,1,.3,0,1.05,1.05,0,0,1,.25.11l-.09.53a.12.12,0,0,1-.12.1l-.17,0a1.1,1.1,0,0,0-.32,0,.92.92,0,0,0-.62.22,1.63,1.63,0,0,0-.42.63v2.58Z"/><path class="cls-5" d="M55,215.68a.16.16,0,0,1,.12.05l.3.33a2.44,2.44,0,0,1-.85.64,2.91,2.91,0,0,1-1.21.23,2.85,2.85,0,0,1-1.12-.21,2.46,2.46,0,0,1-.86-.6,2.71,2.71,0,0,1-.55-.93,3.46,3.46,0,0,1-.2-1.19,3.26,3.26,0,0,1,.21-1.19,2.71,2.71,0,0,1,.59-.93,2.64,2.64,0,0,1,.91-.6,3.1,3.1,0,0,1,1.17-.21,2.61,2.61,0,0,1,1.9.73l-.25.36-.06.07a.17.17,0,0,1-.1,0,.2.2,0,0,1-.11,0l-.14-.09-.19-.12-.26-.12a2.16,2.16,0,0,0-.34-.09,2.39,2.39,0,0,0-.45,0,2.18,2.18,0,0,0-.84.16,1.88,1.88,0,0,0-.66.45,2,2,0,0,0-.43.71,2.71,2.71,0,0,0-.15.94,2.75,2.75,0,0,0,.15,1,2.1,2.1,0,0,0,.42.71,1.77,1.77,0,0,0,.63.44,2,2,0,0,0,.78.15,3.19,3.19,0,0,0,.46,0,1.91,1.91,0,0,0,.38-.09,1.57,1.57,0,0,0,.32-.16,2.49,2.49,0,0,0,.3-.23A.2.2,0,0,1,55,215.68Z"/><path class="cls-5" d="M56.3,216.87v-4.05h.41a.22.22,0,0,1,.16,0,.27.27,0,0,1,.06.15l0,.63a1.85,1.85,0,0,1,.51-.66,1.14,1.14,0,0,1,.72-.24,1.13,1.13,0,0,1,.3,0,1.05,1.05,0,0,1,.25.11l-.09.53a.12.12,0,0,1-.12.1l-.17,0a1.1,1.1,0,0,0-.32,0,.92.92,0,0,0-.62.22,1.63,1.63,0,0,0-.42.63v2.58Z"/><path class="cls-5" d="M61.17,212.75a2.08,2.08,0,0,1,.8.15,1.68,1.68,0,0,1,.61.42A1.85,1.85,0,0,1,63,214a2.85,2.85,0,0,1,0,1.73,1.86,1.86,0,0,1-.38.66,1.67,1.67,0,0,1-.61.42,2.28,2.28,0,0,1-1.6,0,1.69,1.69,0,0,1-.61-.42,1.88,1.88,0,0,1-.39-.66,2.81,2.81,0,0,1,0-1.73,1.87,1.87,0,0,1,.39-.66,1.7,1.7,0,0,1,.61-.42A2.08,2.08,0,0,1,61.17,212.75Zm0,3.62a1,1,0,0,0,.9-.4,2.29,2.29,0,0,0,0-2.25,1,1,0,0,0-.9-.4,1.25,1.25,0,0,0-.53.1,1,1,0,0,0-.37.3,1.33,1.33,0,0,0-.22.48,2.84,2.84,0,0,0,0,1.29,1.32,1.32,0,0,0,.22.48,1,1,0,0,0,.37.3A1.25,1.25,0,0,0,61.17,216.37Z"/><path class="cls-5" d="M63.45,212.82H64a.22.22,0,0,1,.14,0,.22.22,0,0,1,.08.1l.78,2.61.06.28q0,.13,0,.27,0-.14.07-.27l.08-.28.86-2.62a.21.21,0,0,1,.07-.1.2.2,0,0,1,.13,0h.31a.21.21,0,0,1,.13,0,.21.21,0,0,1,.07.1l.84,2.62c0,.09.06.19.08.28l.07.27c0-.09,0-.18.05-.28s0-.19.07-.27l.79-2.61a.2.2,0,0,1,.08-.11.21.21,0,0,1,.13,0h.54l-1.31,4.05h-.56c-.07,0-.12,0-.14-.14l-.9-2.75a1.51,1.51,0,0,1-.05-.19l0-.19,0,.19a1.55,1.55,0,0,1-.05.19l-.91,2.74a.17.17,0,0,1-.16.14h-.54Z"/><path class="cls-5" d="M73,216.87a.18.18,0,0,1-.19-.15l-.06-.49a2.14,2.14,0,0,1-.59.51,1.52,1.52,0,0,1-.77.19,1.46,1.46,0,0,1-.63-.13,1.31,1.31,0,0,1-.48-.39,1.87,1.87,0,0,1-.31-.65,3.34,3.34,0,0,1-.11-.89,2.79,2.79,0,0,1,.12-.83,2,2,0,0,1,.35-.67,1.59,1.59,0,0,1,1.29-.61,1.46,1.46,0,0,1,.64.13,1.52,1.52,0,0,1,.47.35V211h.71v5.89Zm-1.38-.52a1.14,1.14,0,0,0,.61-.16,1.75,1.75,0,0,0,.48-.45v-2a1.13,1.13,0,0,0-.43-.37,1.24,1.24,0,0,0-.52-.11,1,1,0,0,0-.87.4,1.89,1.89,0,0,0-.3,1.15,2.93,2.93,0,0,0,.07.68,1.31,1.31,0,0,0,.2.46.78.78,0,0,0,.32.27A1.08,1.08,0,0,0,71.58,216.35Z"/><line class="cls-1" x1="141.73" y1="214.68" x2="668.68" y2="214.68"/><line class="cls-1" x1="141.73" y1="128.61" x2="668.68" y2="128.61"/><line class="cls-9" x1="164.78" y1="100" x2="324.64" y2="100"/><rect class="cls-10" x="221.6" y="91.67" width="46.23" height="16.67" rx="8.34" ry="8.34"/><path class="cls-8" d="M241.15,97.78a2.54,2.54,0,0,0-.53,0,2.11,2.11,0,0,0-1.81,1.85h0a1.58,1.58,0,0,1,2.82,1.08,1.74,1.74,0,0,1-1.73,1.83c-1.11,0-1.84-.86-1.84-2.21A3.27,3.27,0,0,1,239,98a2.83,2.83,0,0,1,1.66-.77,3.41,3.41,0,0,1,.51,0Zm-.2,3a1.06,1.06,0,0,0-1.07-1.19,1.16,1.16,0,0,0-1,.64.6.6,0,0,0-.08.31c0,.86.41,1.49,1.14,1.49S240.95,101.52,240.95,100.78Z"/><path class="cls-8" d="M245.74,99.82c0,1.77-.66,2.74-1.81,2.74s-1.7-1-1.72-2.67.75-2.7,1.81-2.7S245.74,98.17,245.74,99.82Zm-2.82.08c0,1.35.42,2.12,1.06,2.12s1.06-.84,1.06-2.17-.33-2.12-1.06-2.12S242.92,98.49,242.92,99.9Z"/><path class="cls-8" d="M248.73,98.74c0,1.1-.58,1.64-1.25,1.64s-1.21-.52-1.22-1.57.57-1.62,1.26-1.62S248.73,97.75,248.73,98.74Zm-1.9,0c0,.66.23,1.17.67,1.17s.67-.5.67-1.18-.18-1.16-.67-1.16S246.83,98.14,246.83,98.79Zm.61,3.77,3.05-5.37h.45l-3.05,5.37Zm4.68-1.67c0,1.1-.58,1.64-1.24,1.64s-1.21-.52-1.22-1.56.57-1.63,1.26-1.63S252.11,99.9,252.11,100.9Zm-1.9,0c0,.66.25,1.17.68,1.17s.67-.5.67-1.18-.18-1.16-.67-1.16S250.21,100.29,250.21,100.94Z"/><line class="cls-9" x1="164.78" y1="128.61" x2="325.43" y2="128.61"/><rect class="cls-10" x="221.6" y="120.27" width="46.23" height="16.67" rx="8.34" ry="8.34"/><path class="cls-8" d="M241.15,126.39a2.54,2.54,0,0,0-.53,0,2.11,2.11,0,0,0-1.81,1.85h0a1.58,1.58,0,0,1,2.82,1.08,1.74,1.74,0,0,1-1.73,1.83c-1.11,0-1.84-.86-1.84-2.21a3.27,3.27,0,0,1,.88-2.34,2.83,2.83,0,0,1,1.66-.77,3.41,3.41,0,0,1,.51,0Zm-.2,3a1.06,1.06,0,0,0-1.07-1.19,1.16,1.16,0,0,0-1,.64.6.6,0,0,0-.08.31c0,.86.41,1.49,1.14,1.49S240.95,130.13,240.95,129.38Z"/><path class="cls-8" d="M245.74,128.43c0,1.77-.66,2.74-1.81,2.74s-1.7-1-1.72-2.67.75-2.7,1.81-2.7S245.74,126.78,245.74,128.43Zm-2.82.08c0,1.35.42,2.12,1.06,2.12s1.06-.84,1.06-2.17-.33-2.12-1.06-2.12S242.92,127.1,242.92,128.51Z"/><path class="cls-8" d="M248.73,127.35c0,1.1-.58,1.64-1.25,1.64s-1.21-.52-1.22-1.57.57-1.62,1.26-1.62S248.73,126.36,248.73,127.35Zm-1.9,0c0,.66.23,1.17.67,1.17s.67-.5.67-1.18-.18-1.16-.67-1.16S246.83,126.75,246.83,127.4Zm.61,3.77,3.05-5.37h.45l-3.05,5.37Zm4.68-1.67c0,1.1-.58,1.64-1.24,1.64s-1.21-.52-1.22-1.56.57-1.63,1.26-1.63S252.11,128.51,252.11,129.5Zm-1.9,0c0,.66.25,1.17.68,1.17s.67-.5.67-1.18-.18-1.16-.67-1.16S250.21,128.9,250.21,129.55Z"/><path class="cls-6" d="M157.57,66.56h.88V64q0-.15,0-.31l-.62.52-.08,0h-.08l-.11,0-.07-.06-.23-.32,1.32-1.12h.61v3.79H160v.56h-2.4Z"/><path class="cls-6" d="M162,62.72a1.63,1.63,0,0,1,.55.09,1.23,1.23,0,0,1,.43.25,1.13,1.13,0,0,1,.28.39,1.26,1.26,0,0,1,.1.51,1.35,1.35,0,0,1-.07.44,1.83,1.83,0,0,1-.19.39,2.62,2.62,0,0,1-.28.36l-.33.35-1,1,.28-.06.26,0h1.11a.27.27,0,0,1,.19.07.24.24,0,0,1,.07.18v.44h-3v-.25a.44.44,0,0,1,.13-.31l1.32-1.32.3-.32a2.18,2.18,0,0,0,.22-.3,1.39,1.39,0,0,0,.14-.3,1.13,1.13,0,0,0,0-.33.78.78,0,0,0,0-.27.53.53,0,0,0-.33-.32.79.79,0,0,0-.26,0,.69.69,0,0,0-.44.14.7.7,0,0,0-.24.36.3.3,0,0,1-.1.16.27.27,0,0,1-.17,0H161l-.39-.07a1.6,1.6,0,0,1,.17-.55,1.3,1.3,0,0,1,.32-.39,1.34,1.34,0,0,1,.44-.24A1.78,1.78,0,0,1,162,62.72Z"/><path class="cls-6" d="M168,67.11h-.62a.27.27,0,0,1-.17-.05.3.3,0,0,1-.1-.13l-.32-.88H165l-.32.88a.28.28,0,0,1-.09.13.26.26,0,0,1-.17.06h-.63l1.7-4.34h.82Zm-2.81-1.64h1.38L166,64l-.08-.23-.09-.28-.08.28-.08.23Z"/><path class="cls-6" d="M170.69,65.51l.09.21.09-.21.1-.2,1.28-2.4,0-.07.06,0,.07,0h.7v4.34h-.71v-2.8q0-.08,0-.17c0-.06,0-.12,0-.19l-1.31,2.46a.35.35,0,0,1-.12.13.3.3,0,0,1-.17,0h-.11a.3.3,0,0,1-.17,0,.34.34,0,0,1-.12-.13l-1.33-2.47c0,.07,0,.13,0,.19s0,.12,0,.18v2.8h-.71V62.77h.7l.07,0,.06,0,.05.07,1.3,2.41Z"/><line class="cls-1" x1="141.73" y1="239.16" x2="141.73" y2="21.4"/><path class="cls-5" d="M356.54,35.37v2.25h-1.35V31.08h2.21a3.81,3.81,0,0,1,1.16.16,2.21,2.21,0,0,1,.8.44,1.72,1.72,0,0,1,.47.67,2.3,2.3,0,0,1,.15.84,2.4,2.4,0,0,1-.16.88,1.81,1.81,0,0,1-.48.69,2.23,2.23,0,0,1-.81.45,3.65,3.65,0,0,1-1.14.16Zm0-1h.85a1.24,1.24,0,0,0,.93-.31,1.15,1.15,0,0,0,.29-.84,1.26,1.26,0,0,0-.07-.44.89.89,0,0,0-.22-.34,1,1,0,0,0-.38-.22,1.73,1.73,0,0,0-.54-.08h-.85Z"/><path class="cls-5" d="M363.08,35.13v2.49h-1.35V31.08h2.05a4.21,4.21,0,0,1,1.17.14,2.25,2.25,0,0,1,.8.39,1.51,1.51,0,0,1,.45.6,2,2,0,0,1,.14.77,2,2,0,0,1-.09.61,1.8,1.8,0,0,1-.27.53,1.92,1.92,0,0,1-.43.42,2.22,2.22,0,0,1-.59.3,1.36,1.36,0,0,1,.25.17,1.13,1.13,0,0,1,.21.24l1.52,2.35h-1.22a.53.53,0,0,1-.5-.26l-1.24-2a.53.53,0,0,0-.17-.17.55.55,0,0,0-.27-.05Zm0-1h.69a1.72,1.72,0,0,0,.57-.08,1.06,1.06,0,0,0,.39-.23.9.9,0,0,0,.23-.34,1.26,1.26,0,0,0,.07-.43.88.88,0,0,0-.31-.72,1.45,1.45,0,0,0-.94-.26h-.7Z"/><path class="cls-5" d="M372.64,31.08v1.06h-2.8v1.68H372v1h-2.18v1.71h2.8v1.06h-4.16V31.08Z"/><path class="cls-5" d="M378.08,32.34a.51.51,0,0,1-.13.15.28.28,0,0,1-.17,0,.41.41,0,0,1-.21-.07l-.27-.15a2.54,2.54,0,0,0-.35-.15,1.41,1.41,0,0,0-.46-.07,1,1,0,0,0-.7.21.7.7,0,0,0-.23.55.51.51,0,0,0,.13.36,1.12,1.12,0,0,0,.34.25,3.3,3.3,0,0,0,.47.18l.54.18a4.82,4.82,0,0,1,.54.23,1.9,1.9,0,0,1,.47.33,1.5,1.5,0,0,1,.34.48,1.69,1.69,0,0,1,.13.7,2.23,2.23,0,0,1-.16.83,2,2,0,0,1-.45.68,2.07,2.07,0,0,1-.72.46,2.67,2.67,0,0,1-1,.17,3.08,3.08,0,0,1-.62-.06,3.64,3.64,0,0,1-.59-.17,3.24,3.24,0,0,1-.54-.27,2.35,2.35,0,0,1-.44-.35l.4-.64a.4.4,0,0,1,.13-.12.34.34,0,0,1,.17,0,.47.47,0,0,1,.26.09l.31.2a2.53,2.53,0,0,0,.41.2,1.52,1.52,0,0,0,.56.09,1.11,1.11,0,0,0,.73-.22.79.79,0,0,0,.26-.64.61.61,0,0,0-.13-.4,1,1,0,0,0-.34-.26,2.58,2.58,0,0,0-.47-.18l-.54-.17a4.42,4.42,0,0,1-.54-.22,1.67,1.67,0,0,1-.47-.33,1.57,1.57,0,0,1-.34-.51,2,2,0,0,1-.13-.76,1.8,1.8,0,0,1,.57-1.31,2.11,2.11,0,0,1,.69-.43,2.5,2.5,0,0,1,.93-.16,3.16,3.16,0,0,1,1.09.18,2.45,2.45,0,0,1,.85.51Z"/><path class="cls-5" d="M384.56,31.08v1.06h-2.8v1.68h2.18v1h-2.18v1.71h2.8v1.06H380.4V31.08Z"/><path class="cls-5" d="M387.33,31.09l.11,0,.09.07.1.11,3.28,4.16c0-.11,0-.23,0-.33s0-.21,0-.31V31.08h1.19v6.53h-.7a.62.62,0,0,1-.27-.05.64.64,0,0,1-.21-.18l-3.25-4.14c0,.11,0,.21,0,.31s0,.19,0,.28v3.78h-1.19V31.08h.86Z"/><path class="cls-5" d="M398.78,36a.25.25,0,0,1,.19.08l.54.57a2.55,2.55,0,0,1-1,.76,3.4,3.4,0,0,1-1.4.26,3.34,3.34,0,0,1-1.32-.25,2.86,2.86,0,0,1-1-.7,3.09,3.09,0,0,1-.63-1.06,4.14,4.14,0,0,1-.11-2.26,3.24,3.24,0,0,1,.31-.81,3.08,3.08,0,0,1,.49-.67,3,3,0,0,1,.65-.51,3.1,3.1,0,0,1,.79-.32,3.62,3.62,0,0,1,.91-.11,3.55,3.55,0,0,1,.68.06,3.36,3.36,0,0,1,.6.17,2.76,2.76,0,0,1,.52.27,2.87,2.87,0,0,1,.43.35l-.45.62a.43.43,0,0,1-.1.1.29.29,0,0,1-.17,0,.38.38,0,0,1-.22-.08l-.27-.17a1.91,1.91,0,0,0-.4-.17,2,2,0,0,0-.61-.08,1.87,1.87,0,0,0-.75.15,1.64,1.64,0,0,0-.59.43,2,2,0,0,0-.38.69,3,3,0,0,0-.14.93,2.79,2.79,0,0,0,.15.94,2.05,2.05,0,0,0,.4.7,1.67,1.67,0,0,0,.59.43,1.82,1.82,0,0,0,.73.15l.42,0a1.69,1.69,0,0,0,.35-.08,1.55,1.55,0,0,0,.3-.14,1.84,1.84,0,0,0,.29-.22l.1-.07A.25.25,0,0,1,398.78,36Z"/><path class="cls-5" d="M405.32,31.08v1.06h-2.8v1.68h2.18v1h-2.18v1.71h2.8v1.06h-4.16V31.08Z"/><path class="cls-5" d="M414.71,36a.25.25,0,0,1,.19.08l.54.57a2.55,2.55,0,0,1-1,.76,3.4,3.4,0,0,1-1.4.26,3.34,3.34,0,0,1-1.32-.25,2.86,2.86,0,0,1-1-.7,3.09,3.09,0,0,1-.63-1.06,4.14,4.14,0,0,1-.11-2.26,3.24,3.24,0,0,1,.31-.81,3.08,3.08,0,0,1,.49-.67,3,3,0,0,1,.65-.51,3.1,3.1,0,0,1,.79-.32,3.62,3.62,0,0,1,.91-.11,3.55,3.55,0,0,1,.68.06,3.36,3.36,0,0,1,.6.17,2.76,2.76,0,0,1,.52.27,2.87,2.87,0,0,1,.43.35l-.45.62a.43.43,0,0,1-.1.1.29.29,0,0,1-.17,0,.38.38,0,0,1-.22-.08l-.27-.17a1.91,1.91,0,0,0-.4-.17,2,2,0,0,0-.61-.08,1.87,1.87,0,0,0-.75.15,1.64,1.64,0,0,0-.59.43,2,2,0,0,0-.38.69,3,3,0,0,0-.14.93,2.79,2.79,0,0,0,.15.94,2.05,2.05,0,0,0,.4.7,1.67,1.67,0,0,0,.59.43,1.82,1.82,0,0,0,.73.15l.42,0a1.69,1.69,0,0,0,.35-.08,1.55,1.55,0,0,0,.3-.14,1.84,1.84,0,0,0,.29-.22l.1-.07A.25.25,0,0,1,414.71,36Z"/><path class="cls-5" d="M418.45,35.13v2.49H417.1V31.08h2.05a4.21,4.21,0,0,1,1.17.14,2.25,2.25,0,0,1,.8.39,1.51,1.51,0,0,1,.45.6,2,2,0,0,1,.14.77,2,2,0,0,1-.09.61,1.8,1.8,0,0,1-.27.53,1.92,1.92,0,0,1-.43.42,2.22,2.22,0,0,1-.59.3,1.36,1.36,0,0,1,.25.17,1.13,1.13,0,0,1,.21.24l1.52,2.35h-1.22a.53.53,0,0,1-.5-.26l-1.24-2a.53.53,0,0,0-.17-.17.55.55,0,0,0-.27-.05Zm0-1h.69a1.72,1.72,0,0,0,.57-.08,1.06,1.06,0,0,0,.39-.23.9.9,0,0,0,.23-.34,1.26,1.26,0,0,0,.07-.43.88.88,0,0,0-.31-.72,1.45,1.45,0,0,0-.94-.26h-.7Z"/><path class="cls-5" d="M425.2,37.61h-1.36V31.08h1.36Z"/><path class="cls-5" d="M432.09,31.08v1.09h-1.91v5.44h-1.35V32.17h-1.91V31.08Z"/><path class="cls-5" d="M438,31.08v1.06h-2.8v1.68h2.18v1h-2.18v1.71H438v1.06h-4.16V31.08Z"/><path class="cls-5" d="M441.22,35.13v2.49h-1.35V31.08h2.05a4.2,4.2,0,0,1,1.17.14,2.25,2.25,0,0,1,.8.39,1.52,1.52,0,0,1,.46.6,2,2,0,0,1,.14.77,2,2,0,0,1-.09.61,1.8,1.8,0,0,1-.27.53,1.91,1.91,0,0,1-.43.42,2.21,2.21,0,0,1-.59.3,1.36,1.36,0,0,1,.25.17,1.1,1.1,0,0,1,.21.24l1.52,2.35h-1.22a.53.53,0,0,1-.5-.26l-1.24-2a.52.52,0,0,0-.17-.17.55.55,0,0,0-.27-.05Zm0-1h.69a1.73,1.73,0,0,0,.57-.08,1.07,1.07,0,0,0,.39-.23.89.89,0,0,0,.22-.34,1.26,1.26,0,0,0,.07-.43.88.88,0,0,0-.31-.72,1.44,1.44,0,0,0-.94-.26h-.7Z"/><path class="cls-5" d="M448,37.61h-1.36V31.08H448Z"/><path class="cls-5" d="M456,37.61h-1a.46.46,0,0,1-.29-.08.51.51,0,0,1-.16-.21L454,36.07h-2.6L451,37.32a.5.5,0,0,1-.16.21.43.43,0,0,1-.28.09h-1.06L452,31.08h1.38Zm-4.21-2.48h1.94l-.71-2q-.06-.16-.13-.37t-.14-.45q-.06.25-.13.46c0,.14-.09.27-.13.37Z"/><path class="cls-5" d="M26.35,66v2.25H25V61.7H27.2a3.81,3.81,0,0,1,1.16.16,2.21,2.21,0,0,1,.8.44,1.72,1.72,0,0,1,.47.67,2.3,2.3,0,0,1,.15.84,2.4,2.4,0,0,1-.16.88,1.81,1.81,0,0,1-.48.69,2.23,2.23,0,0,1-.81.45A3.65,3.65,0,0,1,27.2,66Zm0-1h.85a1.24,1.24,0,0,0,.93-.31,1.15,1.15,0,0,0,.29-.84,1.26,1.26,0,0,0-.07-.44.89.89,0,0,0-.22-.34,1,1,0,0,0-.38-.22,1.73,1.73,0,0,0-.54-.08h-.85Z"/><path class="cls-5" d="M37.85,65a3.6,3.6,0,0,1-.24,1.33A3.07,3.07,0,0,1,35.87,68a3.8,3.8,0,0,1-2.74,0,3.16,3.16,0,0,1-1.06-.7,3.09,3.09,0,0,1-.68-1.06,3.77,3.77,0,0,1,0-2.65,3.09,3.09,0,0,1,.68-1.06,3.18,3.18,0,0,1,1.06-.7,3.81,3.81,0,0,1,2.74,0,3.08,3.08,0,0,1,1.73,1.76A3.57,3.57,0,0,1,37.85,65Zm-1.38,0a2.92,2.92,0,0,0-.13-.92,2,2,0,0,0-.39-.69,1.68,1.68,0,0,0-.62-.44,2.31,2.31,0,0,0-1.64,0,1.67,1.67,0,0,0-.62.44,2,2,0,0,0-.39.69,3.23,3.23,0,0,0,0,1.85,1.94,1.94,0,0,0,.39.69,1.69,1.69,0,0,0,.62.43,2.32,2.32,0,0,0,1.64,0,1.69,1.69,0,0,0,.62-.43,1.93,1.93,0,0,0,.39-.69A2.94,2.94,0,0,0,36.47,65Z"/><path class="cls-5" d="M41.09,66v2.25H39.74V61.7h2.21a3.81,3.81,0,0,1,1.16.16,2.21,2.21,0,0,1,.8.44,1.72,1.72,0,0,1,.47.67,2.3,2.3,0,0,1,.15.84,2.4,2.4,0,0,1-.16.88,1.81,1.81,0,0,1-.48.69,2.23,2.23,0,0,1-.81.45,3.65,3.65,0,0,1-1.14.16Zm0-1h.85a1.24,1.24,0,0,0,.93-.31,1.15,1.15,0,0,0,.29-.84,1.26,1.26,0,0,0-.07-.44.89.89,0,0,0-.22-.34,1,1,0,0,0-.38-.22,1.73,1.73,0,0,0-.54-.08h-.85Z"/><path class="cls-5" d="M49,67.15a1.5,1.5,0,0,0,.59-.11,1.21,1.21,0,0,0,.44-.31,1.38,1.38,0,0,0,.27-.49,2.08,2.08,0,0,0,.09-.65V61.7H51.7v3.89a3,3,0,0,1-.19,1.09,2.46,2.46,0,0,1-.55.86,2.49,2.49,0,0,1-.86.56,3.35,3.35,0,0,1-2.3,0,2.49,2.49,0,0,1-.87-.56,2.46,2.46,0,0,1-.55-.86,3,3,0,0,1-.19-1.09V61.7h1.35v3.89a2.08,2.08,0,0,0,.09.65,1.38,1.38,0,0,0,.27.49,1.21,1.21,0,0,0,.44.31A1.52,1.52,0,0,0,49,67.15Z"/><path class="cls-5" d="M55.24,67.13h2.52v1.1H53.89V61.7h1.35Z"/><path class="cls-5" d="M65.2,68.23h-1a.46.46,0,0,1-.29-.08.51.51,0,0,1-.16-.21l-.44-1.25h-2.6l-.44,1.25a.51.51,0,0,1-.16.21.43.43,0,0,1-.28.09H58.72l2.55-6.53h1.38ZM61,65.75h1.94l-.71-2q-.06-.16-.13-.37c0-.14-.09-.29-.14-.45q-.06.25-.13.46c0,.14-.09.27-.13.37Z"/><path class="cls-5" d="M70.69,61.7v1.09H68.78v5.44H67.43V62.79H65.52V61.7Z"/><path class="cls-5" d="M73.76,68.23H72.4V61.7h1.36Z"/><path class="cls-5" d="M82.34,65a3.6,3.6,0,0,1-.24,1.33A3.07,3.07,0,0,1,80.36,68a3.8,3.8,0,0,1-2.74,0,3.16,3.16,0,0,1-1.06-.7,3.09,3.09,0,0,1-.68-1.06,3.77,3.77,0,0,1,0-2.65,3.09,3.09,0,0,1,.68-1.06,3.18,3.18,0,0,1,1.06-.7,3.81,3.81,0,0,1,2.74,0,3.08,3.08,0,0,1,1.73,1.76A3.57,3.57,0,0,1,82.34,65ZM81,65a2.92,2.92,0,0,0-.13-.92,2,2,0,0,0-.39-.69,1.68,1.68,0,0,0-.62-.44,2.31,2.31,0,0,0-1.64,0,1.67,1.67,0,0,0-.62.44,2,2,0,0,0-.39.69,3.23,3.23,0,0,0,0,1.85,1.94,1.94,0,0,0,.39.69,1.69,1.69,0,0,0,.62.43,2.32,2.32,0,0,0,1.64,0,1.69,1.69,0,0,0,.62-.43,1.93,1.93,0,0,0,.39-.69A2.94,2.94,0,0,0,81,65Z"/><path class="cls-5" d="M85.09,61.71l.11,0,.09.07.1.11,3.28,4.16c0-.11,0-.23,0-.33s0-.21,0-.31V61.7h1.19v6.53h-.7a.62.62,0,0,1-.27-.05.64.64,0,0,1-.21-.18l-3.25-4.14c0,.11,0,.21,0,.31s0,.19,0,.28v3.78H84.23V61.7h.86Z"/><path class="cls-5" d="M95.87,68.21a.66.66,0,0,1-.27.34.71.71,0,0,1-.38.12h-.53l2.6-6.72a.64.64,0,0,1,.24-.31.67.67,0,0,1,.38-.11h.53Z"/><path class="cls-5" d="M107.66,61.7v1.09h-1.91v5.44H104.4V62.79h-1.91V61.7Z"/><path class="cls-5" d="M110.73,68.23h-1.36V61.7h1.36Z"/><path class="cls-5" d="M116.46,65.72l.14.34c0-.12.09-.24.14-.35s.1-.22.16-.33l1.81-3.47a.47.47,0,0,1,.09-.12l.1-.06.12,0h1.18v6.53H119v-4c0-.08,0-.17,0-.27s0-.19,0-.3l-1.86,3.54a.5.5,0,0,1-.47.29h-.19a.52.52,0,0,1-.28-.07.52.52,0,0,1-.19-.22l-1.88-3.55q0,.15,0,.3t0,.27v4H113V61.7h1.18l.12,0,.09.06a.5.5,0,0,1,.08.12l1.83,3.48Z"/><path class="cls-5" d="M126.62,61.7v1.06h-2.8v1.68H126v1h-2.18v1.71h2.8v1.06h-4.16V61.7Z"/><rect class="cls-10" x="160.54" y="95.76" width="8.48" height="8.48" rx="4.24" ry="4.24"/><rect class="cls-10" x="320.4" y="95.76" width="8.48" height="8.48" rx="4.24" ry="4.24"/><rect class="cls-10" x="160.54" y="124.37" width="8.48" height="8.48" rx="4.24" ry="4.24"/><rect class="cls-10" x="320.4" y="124.37" width="8.48" height="8.48" rx="4.24" ry="4.24"/><line class="cls-3" x1="393.49" y1="157.06" x2="393.49" y2="71.25"/><line class="cls-3" x1="553.7" y1="156.67" x2="553.7" y2="70.86"/><line class="cls-9" x1="393.45" y1="128.61" x2="554.11" y2="128.61"/><rect class="cls-10" x="452.58" y="120.27" width="46.23" height="16.67" rx="8.34" ry="8.34"/><path class="cls-8" d="M472.14,126.39a2.53,2.53,0,0,0-.53,0,2.11,2.11,0,0,0-1.81,1.85h0a1.58,1.58,0,0,1,2.82,1.08,1.74,1.74,0,0,1-1.73,1.83c-1.11,0-1.84-.86-1.84-2.21a3.27,3.27,0,0,1,.88-2.34,2.83,2.83,0,0,1,1.66-.77,3.41,3.41,0,0,1,.51,0Zm-.2,3a1.06,1.06,0,0,0-1.07-1.19,1.16,1.16,0,0,0-1,.64.6.6,0,0,0-.08.31c0,.86.41,1.49,1.14,1.49S471.94,130.13,471.94,129.38Z"/><path class="cls-8" d="M476.73,128.43c0,1.77-.66,2.74-1.81,2.74s-1.7-1-1.72-2.67.75-2.7,1.81-2.7S476.73,126.78,476.73,128.43Zm-2.82.08c0,1.35.42,2.12,1.06,2.12s1.06-.84,1.06-2.17-.33-2.12-1.06-2.12S473.91,127.1,473.91,128.51Z"/><path class="cls-8" d="M479.72,127.35c0,1.1-.58,1.64-1.25,1.64s-1.21-.52-1.21-1.57.57-1.62,1.25-1.62S479.72,126.36,479.72,127.35Zm-1.9,0c0,.66.23,1.17.67,1.17s.67-.5.67-1.18-.18-1.16-.67-1.16S477.82,126.75,477.82,127.4Zm.61,3.77,3.05-5.37h.45l-3.05,5.37Zm4.68-1.67c0,1.1-.58,1.64-1.24,1.64s-1.21-.52-1.22-1.56.57-1.63,1.26-1.63S483.1,128.51,483.1,129.5Zm-1.9,0c0,.66.25,1.17.68,1.17s.67-.5.67-1.18-.18-1.16-.67-1.16S481.2,128.9,481.2,129.55Z"/><rect class="cls-10" x="389.21" y="124.37" width="8.48" height="8.48" rx="4.24" ry="4.24"/><rect class="cls-10" x="549.46" y="124.37" width="8.48" height="8.48" rx="4.24" ry="4.24"/><line class="cls-9" x1="393.66" y1="157.19" x2="554.31" y2="157.19"/><rect class="cls-10" x="452.79" y="148.85" width="46.23" height="16.67" rx="8.34" ry="8.34"/><path class="cls-8" d="M472.34,155a2.53,2.53,0,0,0-.53,0,2.11,2.11,0,0,0-1.81,1.85h0a1.58,1.58,0,0,1,2.82,1.08,1.74,1.74,0,0,1-1.73,1.83c-1.11,0-1.84-.86-1.84-2.21a3.27,3.27,0,0,1,.88-2.34,2.83,2.83,0,0,1,1.66-.77,3.41,3.41,0,0,1,.51,0Zm-.2,3a1.06,1.06,0,0,0-1.07-1.19,1.16,1.16,0,0,0-1,.64.6.6,0,0,0-.08.31c0,.86.41,1.49,1.14,1.49S472.14,158.7,472.14,158Z"/><path class="cls-8" d="M476.93,157c0,1.77-.66,2.74-1.81,2.74s-1.7-1-1.72-2.67.75-2.7,1.81-2.7S476.93,155.35,476.93,157Zm-2.82.08c0,1.35.42,2.12,1.06,2.12s1.06-.84,1.06-2.17-.33-2.12-1.06-2.12S474.11,155.67,474.11,157.09Z"/><path class="cls-8" d="M479.92,155.93c0,1.1-.58,1.64-1.25,1.64s-1.21-.52-1.21-1.57.57-1.62,1.25-1.62S479.92,154.94,479.92,155.93Zm-1.9,0c0,.66.23,1.17.67,1.17s.67-.5.67-1.18-.18-1.16-.67-1.16S478,155.32,478,156Zm.61,3.77,3.05-5.37h.45l-3.05,5.37Zm4.68-1.67c0,1.1-.58,1.64-1.24,1.64s-1.21-.52-1.22-1.56.57-1.63,1.26-1.63S483.3,157.09,483.3,158.08Zm-1.9,0c0,.66.25,1.17.68,1.17s.67-.5.67-1.18-.18-1.16-.67-1.16S481.4,157.47,481.4,158.13Z"/><rect class="cls-10" x="389.42" y="152.95" width="8.48" height="8.48" rx="4.24" ry="4.24"/><rect class="cls-10" x="549.66" y="152.95" width="8.48" height="8.48" rx="4.24" ry="4.24"/><rect class="cls-11" x="152.86" y="59.34" width="24.6" height="11.45" rx="5.73" ry="5.73"/><path class="cls-6" d="M321.27,62.77v.32a.7.7,0,0,1,0,.23l-.06.15-1.64,3.38a.51.51,0,0,1-.14.18.39.39,0,0,1-.25.07h-.54l1.68-3.31a1.74,1.74,0,0,1,.23-.35h-2.08a.17.17,0,0,1-.17-.17v-.5Z"/><path class="cls-6" d="M325.71,67.11h-.62a.27.27,0,0,1-.17-.05.3.3,0,0,1-.1-.13l-.32-.88h-1.8l-.32.88a.28.28,0,0,1-.09.13.26.26,0,0,1-.17.06h-.63l1.7-4.34H324Zm-2.81-1.64h1.38L323.75,64l-.08-.23-.09-.28-.08.28-.08.23Z"/><path class="cls-6" d="M328.43,65.51l.09.21.09-.21.1-.2L330,62.9l0-.07.06,0,.07,0h.7v4.34h-.71v-2.8q0-.08,0-.17c0-.06,0-.12,0-.19l-1.31,2.46a.35.35,0,0,1-.12.13.3.3,0,0,1-.17,0h-.11a.3.3,0,0,1-.17,0,.34.34,0,0,1-.12-.13l-1.33-2.47c0,.07,0,.13,0,.19s0,.12,0,.18v2.8h-.71V62.77h.7l.07,0,.06,0,.05.07,1.3,2.41Z"/><rect class="cls-11" x="312.34" y="59.34" width="24.6" height="11.45" rx="5.73" ry="5.73"/><path class="cls-6" d="M384.9,66.56h.88V64q0-.15,0-.31l-.62.52-.08,0H385l-.11,0-.07-.06-.23-.32,1.32-1.12h.61v3.79h.78v.56h-2.4Z"/><path class="cls-6" d="M390.9,64.94a3.55,3.55,0,0,1-.12,1,2,2,0,0,1-.34.69,1.36,1.36,0,0,1-.51.41,1.51,1.51,0,0,1-.63.13,1.48,1.48,0,0,1-.63-.13,1.35,1.35,0,0,1-.5-.41,2,2,0,0,1-.33-.69,4.11,4.11,0,0,1,0-2,2,2,0,0,1,.33-.69,1.36,1.36,0,0,1,.5-.41,1.48,1.48,0,0,1,.63-.13,1.51,1.51,0,0,1,.63.13,1.36,1.36,0,0,1,.51.41,2,2,0,0,1,.34.69A3.55,3.55,0,0,1,390.9,64.94Zm-.77,0a3.68,3.68,0,0,0-.07-.78,1.57,1.57,0,0,0-.18-.49.67.67,0,0,0-.27-.26.7.7,0,0,0-.31-.07.68.68,0,0,0-.31.07.66.66,0,0,0-.26.26,1.57,1.57,0,0,0-.18.49,4.55,4.55,0,0,0,0,1.56,1.57,1.57,0,0,0,.18.49.66.66,0,0,0,.26.26.68.68,0,0,0,.31.07.7.7,0,0,0,.31-.07.67.67,0,0,0,.27-.26,1.56,1.56,0,0,0,.18-.49A3.67,3.67,0,0,0,390.14,64.94Z"/><path class="cls-6" d="M395.3,67.11h-.62a.27.27,0,0,1-.17-.05.3.3,0,0,1-.1-.13l-.32-.88h-1.8l-.32.88a.28.28,0,0,1-.09.13.26.26,0,0,1-.17.06h-.63l1.7-4.34h.82Zm-2.81-1.64h1.38L393.35,64l-.08-.23-.09-.28-.08.28L393,64Z"/><path class="cls-6" d="M398,65.51l.09.21.09-.21.1-.2,1.28-2.4,0-.07.06,0,.07,0h.7v4.34h-.71v-2.8q0-.08,0-.17c0-.06,0-.12,0-.19l-1.31,2.46a.35.35,0,0,1-.12.13.3.3,0,0,1-.17,0h-.11a.3.3,0,0,1-.17,0,.34.34,0,0,1-.12-.13l-1.33-2.47c0,.07,0,.13,0,.19s0,.12,0,.18v2.8h-.71V62.77h.7l.07,0,.06,0,.05.07,1.3,2.41Z"/><rect class="cls-11" x="380.19" y="59.34" width="24.6" height="11.45" rx="5.73" ry="5.73"/><path class="cls-6" d="M409.5,66.56h.88V64q0-.15,0-.31l-.62.52-.08,0h-.08l-.11,0-.07-.06-.23-.32,1.32-1.12h.61v3.79h.78v.56h-2.4Z"/><path class="cls-6" d="M413,66.56h.88V64q0-.15,0-.31l-.62.52-.08,0h-.08l-.11,0-.07-.06-.23-.32L414,62.77h.61v3.79h.78v.56H413Z"/><path class="cls-6" d="M419.9,67.11h-.62a.27.27,0,0,1-.17-.05.3.3,0,0,1-.1-.13l-.32-.88h-1.8l-.32.88a.28.28,0,0,1-.09.13.26.26,0,0,1-.17.06h-.63l1.7-4.34h.82Zm-2.81-1.64h1.38L417.95,64l-.08-.23-.09-.28-.08.28-.08.23Z"/><path class="cls-6" d="M422.62,65.51l.09.21.09-.21.1-.2,1.28-2.4,0-.07.06,0,.07,0h.7v4.34h-.71v-2.8c0-.05,0-.11,0-.17s0-.12,0-.19L423,66.41a.35.35,0,0,1-.12.13.3.3,0,0,1-.17,0h-.11a.3.3,0,0,1-.17,0,.34.34,0,0,1-.12-.13L421,63.94c0,.07,0,.13,0,.19s0,.12,0,.18v2.8h-.71V62.77h.7l.07,0,.06,0,.05.07,1.3,2.41Z"/><rect class="cls-11" x="404.79" y="59.34" width="24.6" height="11.45" rx="5.73" ry="5.73"/><path class="cls-6" d="M456.56,66.56h.88V64q0-.15,0-.31l-.62.52-.08,0h-.08l-.11,0-.07-.06-.23-.32,1.32-1.12h.61v3.79H459v.56h-2.4Z"/><path class="cls-6" d="M460.5,65.58v1.53h-.81V62.77h1.41a2.46,2.46,0,0,1,.75.1,1.45,1.45,0,0,1,.52.28,1.12,1.12,0,0,1,.31.44,1.64,1.64,0,0,1,0,1.14,1.21,1.21,0,0,1-.32.45,1.47,1.47,0,0,1-.52.29,2.35,2.35,0,0,1-.74.1Zm0-.63h.61a1.22,1.22,0,0,0,.39-.06.72.72,0,0,0,.27-.16.66.66,0,0,0,.16-.25,1,1,0,0,0,.05-.33.9.9,0,0,0-.05-.31.63.63,0,0,0-.16-.24.72.72,0,0,0-.27-.15,1.29,1.29,0,0,0-.39-.05h-.61Z"/><path class="cls-6" d="M465.69,65.51l.09.21.09-.21.1-.2,1.28-2.4,0-.07.06,0,.07,0h.7v4.34h-.71v-2.8c0-.05,0-.11,0-.17s0-.12,0-.19l-1.31,2.46a.35.35,0,0,1-.12.13.3.3,0,0,1-.17,0h-.11a.3.3,0,0,1-.17,0,.34.34,0,0,1-.12-.13l-1.33-2.47c0,.07,0,.13,0,.19s0,.12,0,.18v2.8h-.71V62.77h.7l.07,0,.06,0,.05.07,1.3,2.41Z"/><rect class="cls-11" x="449.85" y="59.34" width="24.6" height="11.45" rx="5.73" ry="5.73"/><path class="cls-6" d="M550.26,63.09a.35.35,0,0,1-.1.26.47.47,0,0,1-.33.1h-1.19l-.16.91a2.7,2.7,0,0,1,.54-.06,1.63,1.63,0,0,1,.6.1,1.22,1.22,0,0,1,.44.28,1.19,1.19,0,0,1,.27.42,1.49,1.49,0,0,1,.09.52,1.59,1.59,0,0,1-.12.63,1.44,1.44,0,0,1-.34.49,1.52,1.52,0,0,1-.51.31,1.82,1.82,0,0,1-.64.11,1.71,1.71,0,0,1-.39,0,1.9,1.9,0,0,1-.64-.27,1.85,1.85,0,0,1-.24-.19l.23-.31a.22.22,0,0,1,.19-.1.29.29,0,0,1,.15,0l.18.1.24.1a1,1,0,0,0,.33,0,.92.92,0,0,0,.36-.07.71.71,0,0,0,.26-.18.78.78,0,0,0,.16-.28,1.15,1.15,0,0,0,.05-.36.74.74,0,0,0-.21-.55.84.84,0,0,0-.6-.2,1.88,1.88,0,0,0-.63.11l-.46-.13.36-2.11h2.14Z"/><path class="cls-6" d="M552,65.58v1.53h-.81V62.77h1.41a2.46,2.46,0,0,1,.75.1,1.45,1.45,0,0,1,.52.28,1.12,1.12,0,0,1,.31.44,1.64,1.64,0,0,1,0,1.14,1.21,1.21,0,0,1-.32.45,1.47,1.47,0,0,1-.52.29,2.35,2.35,0,0,1-.74.1Zm0-.63h.61a1.22,1.22,0,0,0,.39-.06.72.72,0,0,0,.27-.16.66.66,0,0,0,.16-.25,1,1,0,0,0,.05-.33.9.9,0,0,0-.05-.31.63.63,0,0,0-.16-.24.72.72,0,0,0-.27-.15,1.29,1.29,0,0,0-.39-.05H552Z"/><path class="cls-6" d="M557.24,65.51l.09.21.09-.21.1-.2,1.28-2.4,0-.07.06,0,.07,0h.7v4.34H559v-2.8c0-.05,0-.11,0-.17s0-.12,0-.19l-1.31,2.46a.35.35,0,0,1-.12.13.3.3,0,0,1-.17,0h-.11a.3.3,0,0,1-.17,0,.34.34,0,0,1-.12-.13l-1.33-2.47c0,.07,0,.13,0,.19s0,.12,0,.18v2.8H555V62.77h.7l.07,0,.06,0,.05.07,1.3,2.41Z"/><rect class="cls-11" x="541.4" y="59.34" width="24.6" height="11.45" rx="5.73" ry="5.73"/><path class="cls-6" d="M596.36,62.77v.32a.72.72,0,0,1,0,.23l-.06.15-1.64,3.38a.5.5,0,0,1-.14.18.39.39,0,0,1-.25.07h-.54l1.68-3.31a1.74,1.74,0,0,1,.23-.35h-2.08a.17.17,0,0,1-.12-.05.17.17,0,0,1-.05-.12v-.5Z"/><path class="cls-6" d="M597.82,65.58v1.53H597V62.77h1.41a2.46,2.46,0,0,1,.75.1,1.45,1.45,0,0,1,.52.28,1.12,1.12,0,0,1,.31.44,1.64,1.64,0,0,1,0,1.14,1.21,1.21,0,0,1-.32.45,1.47,1.47,0,0,1-.52.29,2.35,2.35,0,0,1-.74.1Zm0-.63h.61a1.22,1.22,0,0,0,.39-.06.72.72,0,0,0,.27-.16.66.66,0,0,0,.16-.25,1,1,0,0,0,.05-.33.9.9,0,0,0-.05-.31.63.63,0,0,0-.16-.24.72.72,0,0,0-.27-.15,1.29,1.29,0,0,0-.39-.05h-.61Z"/><path class="cls-6" d="M603,65.51l.09.21.09-.21.1-.2,1.28-2.4,0-.07.06,0,.07,0h.7v4.34h-.71v-2.8c0-.05,0-.11,0-.17s0-.12,0-.19l-1.31,2.46a.35.35,0,0,1-.12.13.3.3,0,0,1-.17,0H603a.3.3,0,0,1-.17,0,.34.34,0,0,1-.12-.13l-1.33-2.47c0,.07,0,.13,0,.19s0,.12,0,.18v2.8h-.71V62.77h.7l.07,0,.06,0,.05.07,1.3,2.41Z"/><rect class="cls-11" x="587.18" y="59.34" width="24.6" height="11.45" rx="5.73" ry="5.73"/><path class="cls-6" d="M640.44,65.38a1.29,1.29,0,0,1-.44-.08,1.11,1.11,0,0,1-.38-.24,1.15,1.15,0,0,1-.27-.39,1.34,1.34,0,0,1-.1-.54,1.38,1.38,0,0,1,.41-1,1.42,1.42,0,0,1,.47-.3,1.58,1.58,0,0,1,.6-.11,1.61,1.61,0,0,1,.6.11,1.3,1.3,0,0,1,.45.29,1.27,1.27,0,0,1,.29.45,1.61,1.61,0,0,1,.1.58,2.06,2.06,0,0,1,0,.38,2,2,0,0,1-.1.35,2.46,2.46,0,0,1-.16.32c-.06.1-.13.21-.2.32l-1,1.42a.4.4,0,0,1-.15.12.52.52,0,0,1-.23,0h-.68L641,65.43l.1-.12.09-.12a1.21,1.21,0,0,1-.33.15A1.43,1.43,0,0,1,640.44,65.38Zm1-1.3a.87.87,0,0,0-.05-.32.65.65,0,0,0-.15-.24.67.67,0,0,0-.24-.15.84.84,0,0,0-.3-.05.79.79,0,0,0-.3.06.66.66,0,0,0-.23.15.69.69,0,0,0-.15.24.84.84,0,0,0-.05.3.76.76,0,0,0,.19.55.71.71,0,0,0,.53.19.84.84,0,0,0,.32-.06.67.67,0,0,0,.24-.16.64.64,0,0,0,.15-.23A.84.84,0,0,0,641.45,64.08Z"/><path class="cls-6" d="M643.6,65.58v1.53h-.81V62.77h1.41a2.46,2.46,0,0,1,.75.1,1.45,1.45,0,0,1,.53.28,1.11,1.11,0,0,1,.31.44,1.62,1.62,0,0,1,0,1.14,1.21,1.21,0,0,1-.31.45,1.48,1.48,0,0,1-.53.29,2.34,2.34,0,0,1-.74.1Zm0-.63h.61a1.22,1.22,0,0,0,.39-.06.73.73,0,0,0,.27-.16.65.65,0,0,0,.16-.25,1,1,0,0,0,.05-.33.87.87,0,0,0-.05-.31.62.62,0,0,0-.16-.24.72.72,0,0,0-.27-.15,1.3,1.3,0,0,0-.39-.05h-.61Z"/><path class="cls-6" d="M648.79,65.51l.08.21.09-.21.1-.2,1.28-2.4,0-.07.06,0,.07,0h.7v4.34h-.71v-2.8c0-.05,0-.11,0-.17s0-.12,0-.19l-1.31,2.46a.35.35,0,0,1-.12.13.31.31,0,0,1-.17,0h-.11a.3.3,0,0,1-.17,0,.35.35,0,0,1-.12-.13l-1.33-2.47c0,.07,0,.13,0,.19s0,.12,0,.18v2.8h-.71V62.77h.7l.07,0,.06,0,.05.07,1.3,2.41Z"/><rect class="cls-11" x="632.95" y="59.34" width="24.6" height="11.45" rx="5.73" ry="5.73"/><line class="cls-3" x1="599.61" y1="214.87" x2="599.61" y2="70.86"/><line class="cls-3" x1="645.25" y1="214.87" x2="645.25" y2="70.86"/><line class="cls-9" x1="603.72" y1="214.68" x2="645.25" y2="214.68"/><rect class="cls-10" x="609.17" y="206.34" width="26.38" height="16.67" rx="8.34" ry="8.34"/><path class="cls-8" d="M618.57,212.32a2.53,2.53,0,0,0-.53,0,2.11,2.11,0,0,0-1.81,1.85h0a1.58,1.58,0,0,1,2.82,1.08,1.74,1.74,0,0,1-1.73,1.83c-1.11,0-1.84-.86-1.84-2.21a3.27,3.27,0,0,1,.88-2.34,2.83,2.83,0,0,1,1.66-.77,3.43,3.43,0,0,1,.51,0Zm-.2,3a1.06,1.06,0,0,0-1.07-1.19,1.16,1.16,0,0,0-1,.64.6.6,0,0,0-.08.31c0,.86.41,1.49,1.14,1.49S618.37,216.07,618.37,215.32Z"/><path class="cls-8" d="M623.16,214.37c0,1.77-.66,2.74-1.81,2.74s-1.7-1-1.72-2.67.75-2.7,1.81-2.7S623.16,212.72,623.16,214.37Zm-2.82.08c0,1.35.42,2.12,1.06,2.12s1.06-.84,1.06-2.17-.33-2.12-1.06-2.12S620.34,213,620.34,214.45Z"/><path class="cls-8" d="M626.15,213.29c0,1.1-.58,1.64-1.25,1.64s-1.21-.52-1.22-1.57.57-1.62,1.25-1.62S626.15,212.3,626.15,213.29Zm-1.9,0c0,.66.23,1.17.67,1.17s.67-.5.67-1.18-.18-1.16-.67-1.16S624.25,212.68,624.25,213.34Zm.61,3.77,3.05-5.37h.45l-3.05,5.37Zm4.68-1.67c0,1.1-.58,1.64-1.24,1.64s-1.21-.52-1.22-1.56.57-1.63,1.26-1.63S629.53,214.45,629.53,215.44Zm-1.9,0c0,.66.25,1.17.68,1.17s.67-.5.67-1.18-.18-1.16-.67-1.16S627.63,214.83,627.63,215.49Z"/><rect class="cls-10" x="595.24" y="210.44" width="8.48" height="8.48" rx="4.24" ry="4.24"/><rect class="cls-10" x="641.01" y="210.44" width="8.48" height="8.48" rx="4.24" ry="4.24"/><line class="cls-3" x1="416.51" y1="184.14" x2="416.51" y2="71.22"/><line class="cls-3" x1="462.15" y1="183.78" x2="462.15" y2="70.86"/><line class="cls-9" x1="420.62" y1="185.81" x2="462.15" y2="185.81"/><rect class="cls-10" x="426.07" y="177.47" width="26.38" height="16.67" rx="8.34" ry="8.34"/><path class="cls-8" d="M435.47,183.45a2.53,2.53,0,0,0-.53,0,2.11,2.11,0,0,0-1.81,1.85h0a1.58,1.58,0,0,1,2.82,1.08,1.74,1.74,0,0,1-1.73,1.83c-1.11,0-1.84-.86-1.84-2.21a3.27,3.27,0,0,1,.88-2.34,2.83,2.83,0,0,1,1.66-.77,3.41,3.41,0,0,1,.51,0Zm-.2,3a1.06,1.06,0,0,0-1.07-1.19,1.16,1.16,0,0,0-1,.64.6.6,0,0,0-.08.31c0,.86.41,1.49,1.14,1.49S435.27,187.19,435.27,186.45Z"/><path class="cls-8" d="M440.06,185.5c0,1.77-.66,2.74-1.81,2.74s-1.7-1-1.72-2.67.75-2.7,1.81-2.7S440.06,183.84,440.06,185.5Zm-2.82.08c0,1.35.42,2.12,1.06,2.12s1.06-.84,1.06-2.17-.33-2.12-1.06-2.12S437.24,184.16,437.24,185.58Z"/><path class="cls-8" d="M443.05,184.42c0,1.1-.58,1.64-1.25,1.64s-1.21-.52-1.21-1.57.57-1.62,1.25-1.62S443.05,183.43,443.05,184.42Zm-1.9,0c0,.66.23,1.17.67,1.17s.67-.5.67-1.18-.18-1.16-.67-1.16S441.15,183.81,441.15,184.47Zm.61,3.77,3.05-5.37h.45l-3.05,5.37Zm4.68-1.67c0,1.1-.58,1.64-1.24,1.64s-1.21-.52-1.22-1.56.57-1.63,1.26-1.63S446.43,185.58,446.43,186.57Zm-1.9,0c0,.66.25,1.17.68,1.17s.67-.5.67-1.18-.18-1.16-.67-1.16S444.53,186,444.53,186.62Z"/><rect class="cls-10" x="412.14" y="181.57" width="8.48" height="8.48" rx="4.24" ry="4.24"/><rect class="cls-10" x="457.91" y="181.57" width="8.48" height="8.48" rx="4.24" ry="4.24"/></svg>