<svg xmlns="http://www.w3.org/2000/svg" xmlns:xlink="http://www.w3.org/1999/xlink" viewBox="0 0 600 116">
  <defs>
    <style>
      .cls-1 {
        clip-path: url(#clip-SW_TM-logo-on-dark);
      }

      .cls-2 {
        fill: #black;
      }

      .cls-3 {
        fill: #85ea2d;
      }

      .cls-4 {
        fill: #173647;
      }
    </style>
    <clipPath id="clip-SW_TM-logo-on-dark">
      <rect width="600" height="110"/>
    </clipPath>
  </defs>
  <g id="SW_TM-logo-on-dark">
    <g id="SW_In-Product" transform="translate(-0.301)">
      <path id="Path_2938" data-name="Path 2938" class="cls-3" d="M50.328,97.669A47.642,47.642,0,1,1,97.971,50.027,47.642,47.642,0,0,1,50.328,97.669Z"/>
      <path id="Path_2939" data-name="Path 2939" class="cls-3" d="M50.328,4.769A45.258,45.258,0,1,1,5.07,50.027,45.258,45.258,0,0,1,50.328,4.769m0-4.769a50.027,50.027,0,1,0,50.027,50.027A50.027,50.027,0,0,0,50.328,0Z"/>
      <path id="Path_2940" data-name="Path 2940" class="cls-4" d="M31.8,33.854c-.154,1.712.058,3.482-.057,5.213a42.665,42.665,0,0,1-.693,5.156,9.53,9.53,0,0,1-4.1,5.829c4.079,2.654,4.54,6.771,4.81,10.946.135,2.25.077,4.52.308,6.752.173,1.731.846,2.174,2.636,2.231.73.02,1.48,0,2.327,0V75.33c-5.29.9-9.657-.6-10.734-5.079a30.76,30.76,0,0,1-.654-5c-.117-1.789.076-3.578-.058-5.367-.386-4.906-1.02-6.56-5.713-6.791v-6.1A9.191,9.191,0,0,1,20.9,46.82c2.577-.135,3.674-.924,4.231-3.463a29.3,29.3,0,0,0,.481-4.329,82.1,82.1,0,0,1,.6-8.406c.673-3.982,3.136-5.906,7.234-6.137,1.154-.057,2.327,0,3.655,0v5.464c-.558.038-1.039.115-1.539.115C32.226,29.949,32.052,31.084,31.8,33.854Zm6.406,12.658h-.077a3.515,3.515,0,1,0-.346,7.021h.231a3.461,3.461,0,0,0,3.655-3.251V50.09a3.523,3.523,0,0,0-3.461-3.578Zm12.062,0a3.373,3.373,0,0,0-3.482,3.251,1.79,1.79,0,0,0,.02.327,3.3,3.3,0,0,0,3.578,3.443,3.263,3.263,0,0,0,3.443-3.558,3.308,3.308,0,0,0-3.557-3.463Zm12.351,0a3.592,3.592,0,0,0-3.655,3.482A3.529,3.529,0,0,0,62.5,53.533h.039c1.769.309,3.559-1.4,3.674-3.462a3.571,3.571,0,0,0-3.6-3.559Zm16.948.288c-2.232-.1-3.348-.846-3.9-2.962a21.447,21.447,0,0,1-.635-4.136c-.154-2.578-.135-5.175-.308-7.753-.4-6.117-4.828-8.252-11.254-7.195v5.31c1.019,0,1.808,0,2.6.019,1.366.019,2.4.539,2.539,2.059.135,1.385.135,2.789.27,4.193.269,2.79.422,5.618.9,8.369A8.715,8.715,0,0,0,73.7,50.052c-3.4,2.289-4.406,5.559-4.578,9.234-.1,2.52-.154,5.059-.289,7.6-.115,2.308-.923,3.058-3.251,3.116-.654.019-1.289.077-2.019.115v5.445c1.365,0,2.616.077,3.866,0,3.886-.231,6.233-2.117,7-5.887A49.079,49.079,0,0,0,75,63.4c.135-1.923.116-3.866.308-5.771.289-2.982,1.655-4.213,4.636-4.4a4.037,4.037,0,0,0,.828-.192v-6.1c-.5-.058-.843-.115-1.208-.135Z"/>
      <path id="Path_2941" data-name="Path 2941" class="cls-2" d="M152.273,58.122a11.228,11.228,0,0,1-4.384,9.424q-4.383,3.382-11.9,3.382-8.14,0-12.524-2.1V63.7a32.9,32.9,0,0,0,6.137,1.879,32.3,32.3,0,0,0,6.575.689q5.322,0,8.015-2.02a6.626,6.626,0,0,0,2.692-5.62,7.222,7.222,0,0,0-.954-3.9,8.885,8.885,0,0,0-3.194-2.8,44.634,44.634,0,0,0-6.81-2.911q-6.387-2.286-9.126-5.417a11.955,11.955,0,0,1-2.74-8.172A10.164,10.164,0,0,1,128.039,27q3.977-3.131,10.52-3.131a31,31,0,0,1,12.555,2.5L149.455,31a28.382,28.382,0,0,0-11.021-2.38,10.668,10.668,0,0,0-6.606,1.816,5.984,5.984,0,0,0-2.38,5.041,7.722,7.722,0,0,0,.877,3.9,8.242,8.242,0,0,0,2.959,2.786,36.7,36.7,0,0,0,6.371,2.8q7.2,2.566,9.91,5.51A10.84,10.84,0,0,1,152.273,58.122Z"/>
      <path id="Path_2942" data-name="Path 2942" class="cls-2" d="M185.288,70.3,179,50.17q-.594-1.848-2.222-8.391h-.251q-1.252,5.479-2.192,8.453L167.849,70.3h-6.011l-9.361-34.315h5.447q3.318,12.931,5.057,19.693a80.112,80.112,0,0,1,1.988,9.111h.25q.345-1.785,1.112-4.618t1.33-4.493l6.294-19.693h5.635l6.137,19.693a66.369,66.369,0,0,1,2.379,9.048h.251a33.163,33.163,0,0,1,.673-3.475q.548-2.347,6.528-25.266h5.385L191.456,70.3Z"/>
      <path id="Path_2943" data-name="Path 2943" class="cls-2" d="M225.115,70.3l-1.033-4.885h-.25a14.446,14.446,0,0,1-5.119,4.368,15.608,15.608,0,0,1-6.372,1.143q-5.1,0-8-2.63t-2.9-7.483q0-10.4,16.626-10.9l5.823-.188V47.6q0-4.038-1.738-5.964T216.6,39.713a22.633,22.633,0,0,0-9.706,2.63l-1.6-3.977a24.437,24.437,0,0,1,5.557-2.16,24.056,24.056,0,0,1,6.058-.783q6.136,0,9.1,2.724t2.959,8.735V70.3Zm-11.741-3.663A10.549,10.549,0,0,0,221,63.977a9.845,9.845,0,0,0,2.771-7.451v-3.1l-5.2.219q-6.2.219-8.939,1.926a5.8,5.8,0,0,0-2.74,5.306,5.354,5.354,0,0,0,1.707,4.29,7.081,7.081,0,0,0,4.775,1.472Z"/>
      <path id="Path_2944" data-name="Path 2944" class="cls-2" d="M264.6,35.987v3.287l-6.356.752a11.16,11.16,0,0,1,2.255,6.856,10.148,10.148,0,0,1-3.444,8.047q-3.444,3-9.456,3a15.734,15.734,0,0,1-2.88-.25Q241.4,59.438,241.4,62.1a2.242,2.242,0,0,0,1.159,2.082,8.456,8.456,0,0,0,3.976.673h6.074q5.573,0,8.563,2.348a8.158,8.158,0,0,1,2.99,6.825,9.743,9.743,0,0,1-4.571,8.688q-4.572,2.989-13.338,2.99-6.732,0-10.379-2.5a8.087,8.087,0,0,1-3.647-7.076,7.946,7.946,0,0,1,2-5.417,10.211,10.211,0,0,1,5.636-3.1,5.429,5.429,0,0,1-2.207-1.847,4.89,4.89,0,0,1-.893-2.912,5.53,5.53,0,0,1,1-3.288,10.529,10.529,0,0,1,3.162-2.723,9.275,9.275,0,0,1-4.336-3.726,10.945,10.945,0,0,1-1.675-6.012q0-5.634,3.382-8.688t9.58-3.052a17.439,17.439,0,0,1,4.853.626ZM237.233,76.062a4.66,4.66,0,0,0,2.348,4.227,12.973,12.973,0,0,0,6.732,1.44q6.543,0,9.69-1.956a5.992,5.992,0,0,0,3.147-5.307q0-2.787-1.723-3.867t-6.481-1.08h-6.23a8.205,8.205,0,0,0-5.51,1.69,6.043,6.043,0,0,0-1.973,4.853Zm2.818-29.086a6.984,6.984,0,0,0,2.035,5.448,8.123,8.123,0,0,0,5.667,1.847q7.608,0,7.608-7.389,0-7.733-7.7-7.733a7.628,7.628,0,0,0-5.635,1.972q-1.976,1.973-1.975,5.855Z"/>
      <path id="Path_2945" data-name="Path 2945" class="cls-2" d="M299.136,35.987v3.287l-6.356.752a11.168,11.168,0,0,1,2.254,6.856,10.145,10.145,0,0,1-3.444,8.047q-3.444,3-9.455,3a15.734,15.734,0,0,1-2.88-.25q-3.32,1.754-3.319,4.415a2.243,2.243,0,0,0,1.158,2.082,8.459,8.459,0,0,0,3.976.673h6.074q5.574,0,8.563,2.348a8.158,8.158,0,0,1,2.99,6.825,9.743,9.743,0,0,1-4.571,8.688q-4.57,2.989-13.337,2.99-6.732,0-10.379-2.5a8.088,8.088,0,0,1-3.648-7.076,7.947,7.947,0,0,1,2-5.417,10.207,10.207,0,0,1,5.636-3.1,5.432,5.432,0,0,1-2.208-1.847,4.889,4.889,0,0,1-.892-2.912,5.53,5.53,0,0,1,1-3.288,10.529,10.529,0,0,1,3.162-2.723,9.271,9.271,0,0,1-4.336-3.726,10.945,10.945,0,0,1-1.675-6.012q0-5.634,3.381-8.688t9.581-3.052a17.444,17.444,0,0,1,4.853.626ZM271.772,76.062a4.658,4.658,0,0,0,2.348,4.227,12.969,12.969,0,0,0,6.731,1.44q6.544,0,9.691-1.956a5.993,5.993,0,0,0,3.146-5.307q0-2.787-1.722-3.867t-6.481-1.08h-6.23a8.208,8.208,0,0,0-5.511,1.69A6.042,6.042,0,0,0,271.772,76.062Zm2.818-29.086a6.984,6.984,0,0,0,2.035,5.448,8.121,8.121,0,0,0,5.667,1.847q7.607,0,7.608-7.389,0-7.733-7.7-7.733a7.629,7.629,0,0,0-5.635,1.972q-1.975,1.973-1.975,5.855Z"/>
      <path id="Path_2946" data-name="Path 2946" class="cls-2" d="M316.778,70.928q-7.608,0-12.007-4.634t-4.4-12.868q0-8.3,4.086-13.181a13.573,13.573,0,0,1,10.974-4.884A12.938,12.938,0,0,1,325.638,39.6q3.762,4.247,3.762,11.2v3.287H305.757q.156,6.044,3.053,9.174t8.156,3.131a27.633,27.633,0,0,0,10.958-2.317v4.634a27.5,27.5,0,0,1-5.213,1.706,29.251,29.251,0,0,1-5.933.513Zm-1.409-31.215a8.489,8.489,0,0,0-6.591,2.692,12.416,12.416,0,0,0-2.9,7.452h17.94q0-4.916-2.191-7.53a7.714,7.714,0,0,0-6.258-2.614Z"/>
      <path id="Path_2947" data-name="Path 2947" class="cls-2" d="M350.9,35.361a20.38,20.38,0,0,1,4.1.375l-.721,4.822a17.712,17.712,0,0,0-3.757-.47A9.142,9.142,0,0,0,343.4,43.47a12.327,12.327,0,0,0-2.959,8.422V70.3h-5.2V35.987h4.29l.6,6.356h.25a15.072,15.072,0,0,1,4.6-5.166,10.356,10.356,0,0,1,5.919-1.816Z"/>
      <text x="120" y="110" class="custom-text">customized by Swaggy-Swagger</text>
    </g>
  </g>
</svg>
